<svg width="32" height="26" viewBox="0 0 32 26" fill="none" xmlns="http://www.w3.org/2000/svg">
<path d="M0.166016 25.6663V17.7497H6.49935V19.333H9.66602V17.7497H22.3327V19.333H25.4993V17.7497H31.8327V25.6663H0.166016ZM0.166016 9.83301C0.166016 8.96217 0.476349 8.21642 1.09702 7.59576C1.71663 6.97615 2.46185 6.66634 3.33268 6.66634H8.08268V3.49967C8.08268 2.62884 8.39301 1.88362 9.01368 1.26401C9.63329 0.643341 10.3785 0.333008 11.2493 0.333008H20.7493C21.6202 0.333008 22.3659 0.643341 22.9866 1.26401C23.6062 1.88362 23.916 2.62884 23.916 3.49967V6.66634H28.666C29.5368 6.66634 30.2826 6.97615 30.9033 7.59576C31.5229 8.21642 31.8327 8.96217 31.8327 9.83301V16.1663H25.4993V12.9997H22.3327V16.1663H9.66602V12.9997H6.49935V16.1663H0.166016V9.83301ZM11.2493 6.66634H20.7493V3.49967H11.2493V6.66634Z" fill="#194A96"/>
</svg>
