<svg width="400" height="413" viewBox="0 0 400 413" fill="none" xmlns="http://www.w3.org/2000/svg">
<path d="M237.752 236.707C237.825 236.771 237.894 236.839 237.96 236.91L238.555 237.509L240.851 239.876L249.514 248.906L280.211 281.115H279.856L314.675 242.304L314.915 242.04L315.113 242.334L317.649 246.052L343.993 284.65L343.628 284.589L368.949 264.904L369.095 264.792L369.22 264.924L388.55 286.255L393.769 292.075L395.126 293.598C395.428 293.944 395.574 294.127 395.574 294.127C395.574 294.127 395.397 293.964 395.084 293.639L393.706 292.075L388.383 286.326L368.928 265.148H369.199L343.941 284.965L343.732 285.127L343.576 284.904L317.2 246.367L314.654 242.639H315.082C302.411 256.758 290.491 270.013 280.221 281.45L280.044 281.643L279.866 281.45C267.258 268.103 256.706 256.951 249.306 249.109L240.747 239.968L238.503 237.55C238.263 237.276 238.075 237.073 237.929 236.92C237.783 236.768 237.741 236.717 237.752 236.707Z" fill="#E6E6E6"/>
<path d="M276.61 281.379C276.603 282.085 276.813 282.776 277.212 283.366C277.611 283.955 278.181 284.415 278.85 284.688C279.519 284.961 280.256 285.034 280.967 284.898C281.679 284.762 282.333 284.422 282.846 283.923C283.358 283.424 283.707 282.788 283.847 282.096C283.987 281.403 283.912 280.686 283.631 280.035C283.351 279.384 282.878 278.829 282.272 278.441C281.667 278.053 280.956 277.849 280.231 277.855C279.272 277.86 278.354 278.233 277.676 278.893C276.998 279.553 276.615 280.446 276.61 281.379V281.379Z" fill="#E0E0E0"/>
<path d="M340.559 285.616C340.563 286.319 340.781 287.006 341.187 287.588C341.592 288.171 342.166 288.623 342.836 288.888C343.505 289.153 344.241 289.219 344.949 289.077C345.657 288.935 346.306 288.592 346.813 288.091C347.321 287.59 347.664 286.954 347.8 286.263C347.935 285.571 347.857 284.857 347.576 284.209C347.294 283.561 346.821 283.009 346.216 282.623C345.612 282.237 344.903 282.034 344.18 282.04C343.213 282.048 342.289 282.429 341.61 283.099C340.931 283.77 340.553 284.674 340.559 285.616Z" fill="#E0E0E0"/>
<path d="M365.432 266.041C365.438 266.742 365.658 267.426 366.063 268.006C366.468 268.585 367.041 269.035 367.709 269.297C368.377 269.56 369.11 269.624 369.816 269.481C370.521 269.339 371.167 268.996 371.672 268.496C372.177 267.996 372.518 267.361 372.653 266.672C372.787 265.984 372.709 265.272 372.427 264.626C372.146 263.981 371.674 263.431 371.072 263.046C370.469 262.662 369.763 262.46 369.043 262.466C368.078 262.477 367.156 262.859 366.479 263.529C365.803 264.199 365.426 265.102 365.432 266.041V266.041Z" fill="#E0E0E0"/>
<path d="M311.231 242.782C311.235 243.485 311.453 244.172 311.859 244.754C312.264 245.337 312.838 245.789 313.507 246.054C314.177 246.319 314.913 246.385 315.621 246.243C316.329 246.101 316.978 245.758 317.485 245.257C317.993 244.756 318.336 244.12 318.472 243.428C318.607 242.737 318.529 242.023 318.247 241.375C317.966 240.727 317.492 240.175 316.888 239.789C316.284 239.403 315.575 239.2 314.852 239.206C313.885 239.214 312.961 239.595 312.282 240.265C311.603 240.936 311.225 241.84 311.231 242.782V242.782Z" fill="#E0E0E0"/>
<path d="M392.693 294.229C392.698 294.932 392.916 295.619 393.321 296.201C393.727 296.784 394.301 297.237 394.97 297.502C395.64 297.767 396.375 297.832 397.083 297.69C397.792 297.548 398.44 297.205 398.948 296.704C399.455 296.203 399.799 295.567 399.935 294.876C400.07 294.185 399.992 293.47 399.71 292.822C399.428 292.174 398.955 291.622 398.351 291.236C397.747 290.85 397.038 290.647 396.315 290.653C395.348 290.662 394.424 291.042 393.745 291.713C393.066 292.383 392.688 293.288 392.693 294.229V294.229Z" fill="#E0E0E0"/>
<path d="M72.7476 25.2412H49.2949V116.018H72.7476V25.2412Z" fill="#E6E6E6"/>
<path d="M107.244 45.0381H83.791V116.008H107.244V45.0381Z" fill="#E6E6E6"/>
<path d="M142.271 61.249H118.818V116.007H142.271V61.249Z" fill="#E6E6E6"/>
<path d="M174.701 83.4932H151.248V116.017H174.701V83.4932Z" fill="#E6E6E6"/>
<path d="M155.923 2.58984C155.923 2.58984 155.704 2.86409 155.276 3.35165L153.324 5.53548L145.903 13.763L119.142 43.2193L118.996 43.3717L118.829 43.2498L101.367 30.2281H101.722L77.2988 60.3548L77.0066 60.7205L76.8292 60.944L76.61 60.751L43.722 32.483H44.0873C31.1763 48.9786 20.238 63.0669 12.41 73.0312L3.29819 84.6208L0.8663 87.668L0.229622 88.4501C0.15856 88.5425 0.0818818 88.6307 0 88.7142C0.0592888 88.6151 0.125552 88.5201 0.198312 88.4298L0.803671 87.6172L3.17295 84.4989L12.1595 72.8281L43.6802 32.1376L43.8472 31.9243L44.0455 32.097L76.9753 60.2939H76.5787L76.8709 59.9282L101.326 29.8218L101.482 29.6288L101.68 29.7811L119.111 42.7927H118.798L145.695 13.57C148.941 10.0657 151.487 7.31302 153.23 5.44407L155.224 3.31102C155.683 2.80315 155.923 2.58984 155.923 2.58984Z" fill="#E6E6E6"/>
<path d="M152.05 23.6463C152.042 23.4921 152.06 23.3377 152.103 23.1892L152.363 21.889C152.635 20.6803 153 19.0754 153.407 17.1151C154.336 13.0521 155.651 7.50619 157.165 1.28988L157.499 1.5946L156.319 1.95011C149.775 3.91048 143.847 5.64739 139.546 6.88659L134.443 8.31878L133.044 8.68445C132.884 8.74265 132.714 8.77357 132.543 8.77586C132.693 8.69671 132.85 8.63207 133.013 8.58287L134.38 8.12579L139.432 6.53108C143.7 5.20047 149.618 3.40261 156.131 1.4524L157.311 1.10705L157.77 0.964844L157.655 1.42192C156.204 7.66871 154.879 13.1943 153.835 17.2065C153.324 19.1465 152.906 20.7413 152.604 21.9398C152.457 22.4375 152.332 22.8641 152.238 23.2095C152.198 23.3633 152.135 23.5104 152.05 23.6463V23.6463Z" fill="#E6E6E6"/>
<path d="M337.063 156.078C341.723 156.005 346.301 157.277 350.218 159.736C354.136 162.194 357.216 165.727 359.069 169.889C360.923 174.051 361.467 178.654 360.633 183.117C359.798 187.579 357.623 191.701 354.381 194.96C351.14 198.22 346.978 200.471 342.423 201.429C337.867 202.387 333.121 202.008 328.786 200.342C324.452 198.675 320.722 195.795 318.069 192.065C315.416 188.336 313.959 183.925 313.882 179.389C313.787 173.309 316.174 167.44 320.52 163.069C324.865 158.699 330.815 156.185 337.063 156.078V156.078ZM337.627 189.984C339.855 189.943 342.02 189.261 343.85 188.023C345.68 186.785 347.092 185.048 347.907 183.029C348.722 181.011 348.905 178.803 348.431 176.684C347.957 174.565 346.849 172.63 345.246 171.123C343.643 169.617 341.617 168.607 339.424 168.221C337.231 167.835 334.97 168.09 332.926 168.954C330.882 169.817 329.147 171.252 327.94 173.075C326.733 174.898 326.109 177.028 326.145 179.196C326.171 180.638 326.489 182.061 327.08 183.384C327.671 184.706 328.524 185.903 329.59 186.905C330.656 187.906 331.915 188.694 333.293 189.222C334.672 189.75 336.145 190.009 337.627 189.984V189.984Z" fill="#E0E0E0"/>
<path d="M337.022 153.224C344.05 153.127 350.831 155.745 355.879 160.505C360.927 165.265 363.829 171.778 363.95 178.618L347.876 179.024C347.772 172.229 343.044 169.466 337.439 169.121C336.062 169.04 334.682 169.239 333.387 169.703C332.093 170.167 330.911 170.886 329.915 171.816C328.92 172.747 328.134 173.867 327.606 175.108C327.077 176.348 326.818 177.682 326.845 179.024L310.939 179.441C310.83 172.599 313.516 165.996 318.406 161.08C323.297 156.165 329.992 153.339 337.022 153.224Z" fill="#F0F0F0"/>
<path d="M146.227 257.144C154.341 248.859 165.473 244.004 177.227 243.624C188.982 243.244 200.42 247.369 209.081 255.113C213.335 258.929 216.769 263.529 219.183 268.646C221.598 273.763 222.944 279.295 223.145 284.922C223.346 290.55 222.397 296.16 220.354 301.428C218.311 306.695 215.213 311.516 211.241 315.61C203.127 323.896 191.996 328.751 180.241 329.131C168.487 329.511 157.049 325.385 148.388 317.642C144.133 313.826 140.699 309.226 138.285 304.109C135.871 298.992 134.524 293.459 134.323 287.832C134.122 282.205 135.071 276.595 137.114 271.327C139.158 266.059 142.255 261.239 146.227 257.144V257.144ZM194.239 300.354C196.143 298.397 197.628 296.091 198.608 293.571C199.587 291.05 200.042 288.365 199.945 285.672C199.848 282.979 199.201 280.331 198.042 277.884C196.883 275.436 195.236 273.237 193.195 271.415C189.05 267.717 183.577 265.752 177.957 265.942C172.337 266.131 167.018 268.462 163.146 272.431C161.242 274.388 159.757 276.694 158.777 279.214C157.798 281.735 157.343 284.42 157.44 287.113C157.537 289.806 158.184 292.454 159.343 294.901C160.502 297.349 162.149 299.548 164.19 301.37C168.335 305.076 173.812 307.048 179.439 306.858C185.065 306.668 190.388 304.331 194.26 300.354H194.239Z" fill="#F5F5F5"/>
<path d="M146.227 257.144C154.341 248.859 165.473 244.004 177.227 243.624C188.982 243.244 200.42 247.369 209.081 255.113L193.237 271.446C189.091 267.748 183.619 265.782 177.999 265.972C172.379 266.162 167.06 268.493 163.188 272.462C161.284 274.418 159.799 276.724 158.819 279.245C157.839 281.765 157.385 284.45 157.482 287.144C157.579 289.837 158.226 292.484 159.385 294.932C160.544 297.379 162.191 299.578 164.232 301.4L148.367 317.672C144.109 313.854 140.673 309.252 138.258 304.131C135.843 299.011 134.496 293.474 134.297 287.843C134.098 282.213 135.05 276.599 137.098 271.329C139.146 266.06 142.249 261.238 146.227 257.144V257.144Z" fill="#E0E0E0"/>
<path d="M207.265 248.094C229.183 267.83 231.844 299.896 211.335 321.064L189.072 302.385C198.873 292.278 201.002 278.779 190.513 269.343L207.265 248.094Z" fill="#EBEBEB"/>
<path d="M186.756 303.725L199.98 329.18C205.448 327.229 210.375 324.068 214.373 319.947L190.618 301.277L186.756 303.725Z" fill="#E0E0E0"/>
<path d="M236.645 68.7655C236.452 57.3558 239.741 46.1469 246.096 36.5567C252.45 26.9666 261.585 19.426 272.344 14.8891C283.103 10.3521 295.003 9.02259 306.539 11.0687C318.074 13.1148 328.727 18.4446 337.149 26.3839C345.572 34.3231 351.385 44.515 353.855 55.6703C356.324 66.8256 355.338 78.443 351.021 89.0528C346.705 99.6626 339.252 108.788 329.605 115.275C319.958 121.762 308.551 125.318 296.826 125.494C281.124 125.712 265.972 119.863 254.692 109.23C243.412 98.597 236.922 84.0462 236.645 68.7655V68.7655ZM324.245 67.3942C324.154 61.941 322.403 56.6366 319.214 52.1518C316.024 47.667 311.54 44.2032 306.328 42.1983C301.117 40.1934 295.411 39.7375 289.933 40.8882C284.455 42.039 279.45 44.7446 275.552 48.6632C271.654 52.5817 269.037 57.5371 268.033 62.9027C267.029 68.2684 267.682 73.8034 269.91 78.8079C272.138 83.8123 275.84 88.0615 280.55 91.0181C285.259 93.9748 290.764 95.5061 296.367 95.4184C303.88 95.2928 311.035 92.2715 316.262 87.0175C321.489 81.7635 324.36 74.7061 324.245 67.3942V67.3942Z" fill="#FAFAFA"/>
<path d="M236.645 68.7649C236.408 53.473 242.415 38.7143 253.348 27.7282C264.281 16.7421 279.246 10.4262 294.959 10.167L295.46 40.2633C287.944 40.3805 280.784 43.3983 275.555 48.6529C270.326 53.9075 267.456 60.9685 267.576 68.2824C267.697 75.5964 270.798 82.5642 276.197 87.6531C281.597 92.742 288.852 95.535 296.368 95.4178L296.827 125.494C281.123 125.717 265.968 119.87 254.687 109.236C243.405 98.6013 236.917 84.0474 236.645 68.7649V68.7649Z" fill="#E0E0E0"/>
<path d="M289.635 5.53557C327.867 4.93628 358.375 33.6816 358.98 70.8881L322.794 71.4569C322.502 53.6612 308.526 42.4576 290.251 42.7522L289.635 5.53557Z" fill="#F0F0F0"/>
<path d="M359.45 411.861C359.45 412.003 281.411 412.125 185.147 412.125C88.8836 412.125 10.8438 412.003 10.8438 411.861C10.8438 411.719 88.8628 411.587 185.147 411.587C281.431 411.587 359.45 411.709 359.45 411.861Z" fill="#263238"/>
<path d="M117.795 271.018L311.199 269.667V272.308L117.795 273.994V271.018Z" fill="#263238"/>
<path d="M113.58 79.663L117.985 272.592L311.2 271.13V76.4229L113.58 79.663Z" fill="white"/>
<path d="M113.578 79.6629L311.199 76.1992H311.439V76.4328C311.439 132.166 311.439 197.935 311.439 268.102V271.404H311.167L117.951 272.836H117.722V272.612C115.227 156.981 113.599 81.6537 113.547 79.673C113.547 81.6233 115.405 156.981 118.181 272.592L117.951 272.369L311.167 270.875L310.896 271.14V268.092C310.896 197.925 310.896 132.156 310.896 76.4227L311.136 76.6563L113.578 79.6629Z" fill="#263238"/>
<path d="M112.807 80.9532L312.045 79.846L312.295 71.71L112.807 72.9187V80.9532Z" fill="#263238"/>
<path d="M208.182 277.854C207.848 277.854 207.493 276.341 207.4 274.452C207.306 272.562 207.514 271.019 207.848 270.998C208.182 270.978 208.537 272.502 208.631 274.391C208.725 276.28 208.527 277.854 208.182 277.854Z" fill="#263238"/>
<path d="M208.11 276.462C208.11 276.391 208.444 276.37 208.966 276.574C209.281 276.703 209.576 276.874 209.843 277.082C210.202 277.362 210.503 277.707 210.73 278.097C211.039 278.637 211.195 279.248 211.18 279.866C211.166 280.484 210.981 281.086 210.646 281.612C210.446 281.928 210.191 282.21 209.895 282.445C209.585 282.687 209.231 282.87 208.851 282.983C208.044 283.2 207.185 283.139 206.419 282.81C206.032 282.642 205.678 282.409 205.375 282.12C205.074 281.83 204.836 281.485 204.676 281.104C204.387 280.411 204.325 279.648 204.499 278.92C204.627 278.313 204.928 277.753 205.367 277.304C205.806 276.855 206.366 276.535 206.983 276.381C207.772 276.171 208.613 276.243 209.352 276.584C209.853 276.828 210.041 277.082 209.999 277.142C209.957 277.203 209.676 277.142 209.196 277.021C208.542 276.902 207.867 276.958 207.244 277.183C206.842 277.335 206.484 277.579 206.2 277.894C205.874 278.266 205.661 278.718 205.586 279.201C205.51 279.684 205.575 280.177 205.772 280.626C205.999 281.109 206.406 281.49 206.91 281.693C207.411 281.911 207.974 281.958 208.507 281.825C208.996 281.702 209.421 281.405 209.697 280.992C209.968 280.603 210.13 280.151 210.166 279.682C210.198 279.47 210.198 279.254 210.166 279.042C210.132 278.842 210.073 278.648 209.989 278.463C209.721 277.865 209.301 277.344 208.768 276.949C208.381 276.685 208.11 276.543 208.11 276.462Z" fill="#263238"/>
<path d="M236.854 185.238C236.854 185.238 236.854 185.238 236.729 185.238H236.374L234.996 185.299L229.684 185.523L210.145 186.234C193.644 186.823 170.838 187.605 145.663 188.448L137 188.733H136.802V188.54C135.048 166.122 133.462 146.031 132.366 131.587C131.823 124.375 131.395 118.576 131.093 114.584C130.957 112.552 130.842 111.039 130.769 109.993C130.769 109.464 130.706 109.068 130.696 108.794C130.686 108.52 130.696 108.56 130.696 108.489C130.696 108.418 130.696 108.388 130.696 108.388C130.701 108.421 130.701 108.456 130.696 108.489C130.696 108.56 130.696 108.662 130.696 108.794C130.696 108.926 130.759 109.464 130.811 109.982C130.894 110.998 131.03 112.573 131.207 114.574C131.531 118.565 132.011 124.365 132.606 131.557C133.775 145.96 135.382 166 137.157 188.509L136.948 188.326L145.611 188.032C170.786 187.199 193.623 186.457 210.093 185.949L229.642 185.36L234.955 185.218H236.332H236.812L236.854 185.238Z" fill="#455A64"/>
<path d="M166.893 102.142V104.732L194.426 103.452V101.278L166.893 102.142Z" fill="#263238"/>
<path d="M146.049 183.025H155.621L154.118 157.743H144.734L146.049 183.025Z" fill="#194A96"/>
<path d="M163.397 183.035H172.958L171.465 147.697H162.082L163.397 183.035Z" fill="#194A96"/>
<path d="M179.637 181.907H189.208L187.705 135.641H178.332L179.637 181.907Z" fill="#194A96"/>
<path d="M216.897 180.11H226.458L224.965 117.053H215.582L216.897 180.11Z" fill="#194A96"/>
<path d="M198.768 180.323H208.329L206.826 126.062H197.453L198.768 180.323Z" fill="#194A96"/>
<path d="M140.038 151.191C139.787 150.816 156.884 139.724 178.207 126.418C199.531 113.111 217.044 102.629 217.295 103.056C217.545 103.482 200.449 114.523 179.115 127.829C157.781 141.136 140.267 151.567 140.038 151.191Z" fill="#194A96"/>
<path d="M207.829 103.015C207.745 102.568 213.935 101.065 221.679 99.6426L223.642 99.2871L222.525 100.902L222.462 100.994C218.037 107.393 214.112 112.38 213.747 112.167C213.382 111.953 216.648 106.529 221.053 100.12L221.116 100.029L221.972 101.288C214.237 102.659 207.912 103.452 207.829 103.015Z" fill="#194A96"/>
<path d="M144.734 191.567H154.733L155.046 193.294H144.734V191.567Z" fill="#263238"/>
<path d="M162.436 190.855H172.435L172.748 192.582H162.436V190.855Z" fill="#263238"/>
<path d="M180.66 190.349H190.659L190.972 192.075H180.66V190.349Z" fill="#263238"/>
<path d="M197.734 189.932H207.733L208.046 191.669H197.734V189.932Z" fill="#263238"/>
<path d="M218.893 189.322H228.892L229.205 191.059H218.893V189.322Z" fill="#263238"/>
<path d="M263.742 258.169C281.369 258.169 295.659 244.263 295.659 227.108C295.659 209.953 281.369 196.047 263.742 196.047C246.114 196.047 231.824 209.953 231.824 227.108C231.824 244.263 246.114 258.169 263.742 258.169Z" fill="#194A96"/>
<path opacity="0.3" d="M263.742 258.169C281.369 258.169 295.659 244.263 295.659 227.108C295.659 209.953 281.369 196.047 263.742 196.047C246.114 196.047 231.824 209.953 231.824 227.108C231.824 244.263 246.114 258.169 263.742 258.169Z" fill="black"/>
<path d="M263.74 227.067L232.606 233.883C227.596 211.536 246.112 196.006 263.74 196.006" fill="#194A96"/>
<path d="M263.783 227.067L263.574 196.006C287.079 196.006 298.727 216.92 294.97 233.68L263.783 227.067Z" fill="#194A96"/>
<path d="M263.783 227.067L263.574 196.006C287.079 196.006 298.727 216.92 294.97 233.68L263.783 227.067Z" fill="#194A96"/>
<path opacity="0.1" d="M263.783 227.067L263.574 196.006C287.079 196.006 298.727 216.92 294.97 233.68L263.783 227.067Z" fill="black"/>
<path d="M296.482 153.558C295.862 153.155 295.201 152.814 294.51 152.542C292.582 151.968 290.514 152.026 288.623 152.705C286.181 153.446 283.759 155.336 281.411 157.702C279.062 160.069 276.547 162.933 272.873 164.609C271.1 165.466 269.105 165.788 267.143 165.534C265.373 165.176 263.662 164.581 262.06 163.766C260.649 163.051 259.142 162.535 257.582 162.232C256.226 162.025 254.837 162.194 253.574 162.72C251.717 163.487 250.197 164.869 249.285 166.62C248.991 167.279 248.75 167.958 248.564 168.652C248.597 167.917 248.778 167.196 249.097 166.529C249.971 164.679 251.507 163.203 253.418 162.375C254.727 161.807 256.173 161.607 257.593 161.796C259.204 162.087 260.764 162.6 262.227 163.319C263.787 164.107 265.452 164.681 267.174 165.026C269.031 165.251 270.914 164.94 272.591 164.132C276.119 162.527 278.593 159.683 281.004 157.357C283.415 155.031 285.909 153.07 288.445 152.349C290.416 151.68 292.56 151.68 294.53 152.349C295.056 152.546 295.551 152.813 296.002 153.142C296.179 153.261 296.34 153.4 296.482 153.558V153.558Z" fill="#263238"/>
<path d="M299.185 173.629C299.185 173.782 287.851 173.893 273.875 173.893C259.899 173.893 248.564 173.782 248.564 173.629C248.564 173.477 259.899 173.365 273.875 173.365C287.851 173.365 299.185 173.487 299.185 173.629Z" fill="#263238"/>
<path d="M296.367 173.629C296.221 173.629 296.096 167.352 296.096 159.602C296.096 151.852 296.221 145.585 296.367 145.585C296.513 145.585 296.638 151.862 296.638 159.602C296.638 167.342 296.524 173.629 296.367 173.629Z" fill="#263238"/>
<path d="M253.669 161.816C253.669 161.816 253.596 161.714 253.669 161.532C253.717 161.403 253.793 161.287 253.892 161.19C253.991 161.094 254.111 161.02 254.243 160.973C254.441 160.887 254.66 160.857 254.875 160.883C255.09 160.91 255.294 160.994 255.464 161.125C255.648 161.326 255.756 161.582 255.772 161.85C255.787 162.119 255.708 162.385 255.548 162.604C255.388 162.823 255.157 162.983 254.891 163.058C254.625 163.133 254.342 163.117 254.086 163.015C253.906 162.91 253.759 162.761 253.658 162.582C253.557 162.404 253.507 162.202 253.512 161.999C253.51 161.863 253.536 161.729 253.588 161.603C253.64 161.478 253.717 161.364 253.815 161.267C253.971 161.146 254.086 161.146 254.097 161.166C254.107 161.186 253.815 161.46 253.888 161.978C253.902 162.112 253.949 162.24 254.023 162.353C254.097 162.465 254.198 162.56 254.316 162.629C254.462 162.664 254.616 162.657 254.758 162.606C254.9 162.555 255.023 162.464 255.111 162.345C255.198 162.225 255.247 162.083 255.251 161.936C255.254 161.789 255.212 161.645 255.13 161.521C255.025 161.438 254.901 161.38 254.768 161.354C254.636 161.327 254.498 161.332 254.368 161.369C253.836 161.45 253.742 161.836 253.669 161.816Z" fill="#263238"/>
<path d="M287.798 151.628C287.798 151.628 287.798 151.507 287.986 151.405C288.229 151.286 288.51 151.264 288.769 151.344C288.975 151.399 289.161 151.507 289.309 151.657C289.456 151.808 289.558 151.994 289.604 152.197C289.62 152.459 289.545 152.719 289.391 152.934C289.237 153.149 289.013 153.308 288.755 153.384C288.497 153.461 288.22 153.45 287.968 153.354C287.717 153.259 287.507 153.084 287.37 152.857C287.295 152.662 287.276 152.45 287.314 152.244C287.353 152.038 287.448 151.847 287.589 151.689C287.766 151.486 288.017 151.359 288.289 151.334C288.477 151.334 288.571 151.395 288.56 151.425C288.55 151.456 288.163 151.476 287.903 151.913C287.83 152.022 287.785 152.145 287.771 152.274C287.756 152.403 287.773 152.533 287.819 152.654C287.911 152.764 288.034 152.845 288.173 152.886C288.312 152.927 288.461 152.927 288.6 152.885C288.739 152.844 288.862 152.763 288.953 152.653C289.045 152.543 289.1 152.409 289.113 152.268C289.086 152.142 289.028 152.024 288.944 151.923C288.861 151.822 288.754 151.742 288.633 151.689C288.174 151.466 287.85 151.7 287.798 151.628Z" fill="#263238"/>
<path d="M295.47 118.383C295.47 118.525 284.49 118.647 270.953 118.647C257.416 118.647 246.436 118.525 246.436 118.383C246.436 118.241 257.405 118.119 270.953 118.119C284.5 118.119 295.47 118.261 295.47 118.383Z" fill="#263238"/>
<path d="M295.47 125.036C295.47 125.188 284.49 125.3 270.953 125.3C257.416 125.3 246.436 125.188 246.436 125.036C246.436 124.883 257.405 124.771 270.953 124.771C284.5 124.771 295.47 124.893 295.47 125.036Z" fill="#263238"/>
<path d="M295.47 131.668C295.47 131.811 284.49 131.932 270.953 131.932C257.416 131.932 246.436 131.811 246.436 131.668C246.436 131.526 257.405 131.404 270.953 131.404C284.5 131.404 295.47 131.516 295.47 131.668Z" fill="#263238"/>
<path d="M295.47 138.291C295.47 138.444 284.49 138.556 270.953 138.556C257.416 138.556 246.436 138.444 246.436 138.291C246.436 138.139 257.405 138.027 270.953 138.027C284.5 138.027 295.47 138.149 295.47 138.291Z" fill="#263238"/>
<path d="M272.529 106.286H246.436V108.429H272.529V106.286Z" fill="#263238"/>
<path d="M164.816 212.694H138.723V214.838H164.816V212.694Z" fill="#263238"/>
<path d="M210.124 225.117C210.124 225.269 194.291 225.381 174.763 225.381C155.234 225.381 139.391 225.269 139.391 225.117C139.391 224.964 155.224 224.853 174.763 224.853C194.301 224.853 210.124 224.974 210.124 225.117Z" fill="#263238"/>
<path d="M210.542 231.13C210.542 231.273 194.427 231.394 174.554 231.394C154.682 231.394 138.566 231.273 138.566 231.13C138.566 230.988 154.671 230.866 174.554 230.866C194.437 230.866 210.542 231.008 210.542 231.13Z" fill="#263238"/>
<path d="M211.366 236.798C211.366 236.94 195.157 237.062 175.169 237.062C155.182 237.062 138.973 236.94 138.973 236.798C138.973 236.656 155.182 236.534 175.169 236.534C195.157 236.534 211.366 236.646 211.366 236.798Z" fill="#263238"/>
<path d="M176.621 242.831C176.621 242.974 168.271 243.096 158 243.096C147.73 243.096 139.391 242.974 139.391 242.831C139.391 242.689 147.74 242.567 158 242.567C168.26 242.567 176.621 242.689 176.621 242.831Z" fill="#263238"/>
<path d="M62.9591 407.26V398.118L45.2887 397.966L45.1426 411.404L46.1863 411.475C51.0605 411.77 70.9854 412.633 74.2523 411.699C77.9471 410.642 62.9591 407.26 62.9591 407.26Z" fill="#194A96"/>
<path d="M74.7225 410.855C74.7225 411.018 68.1157 411.15 59.9641 411.15C51.8126 411.15 45.1953 411.018 45.1953 410.855C45.1953 410.693 51.8126 410.561 59.9641 410.561C68.1157 410.561 74.7225 410.693 74.7225 410.855Z" fill="#263238"/>
<path d="M63.273 409.139C63.1268 409.058 63.273 408.56 63.6279 408.123C63.9827 407.686 64.4733 407.402 64.5776 407.514C64.682 407.625 64.4524 408.042 64.108 408.529C63.7635 409.017 63.4191 409.22 63.273 409.139Z" fill="#263238"/>
<path d="M64.4001 409.738C64.2435 409.677 64.327 409.129 64.6715 408.56C65.0159 407.991 65.4751 407.646 65.6004 407.747C65.7256 407.849 65.5169 408.326 65.1933 408.854C64.8698 409.382 64.5566 409.799 64.4001 409.738Z" fill="#263238"/>
<path d="M50.5082 410.794C50.4352 410.845 50.1638 410.601 49.7776 410.195C49.3075 409.664 48.7868 409.177 48.2224 408.742C47.6596 408.34 47.0037 408.078 46.3124 407.98C45.7801 407.909 45.4357 407.98 45.4044 407.899C45.3731 407.818 45.707 407.605 46.3228 407.564C47.1344 407.541 47.9296 407.788 48.5773 408.265C49.1947 408.725 49.7185 409.294 50.122 409.941C50.4456 410.418 50.5917 410.743 50.5082 410.794Z" fill="#263238"/>
<path d="M63.3252 407.412C63.4087 407.544 63.0956 407.869 62.5946 408.042C62.0936 408.214 61.6448 408.153 61.6239 407.991C61.6031 407.828 61.9475 407.646 62.3963 407.493C62.8451 407.341 63.2313 407.27 63.3252 407.412Z" fill="#263238"/>
<path d="M63.0328 406.518C63.0328 406.681 62.5735 406.823 61.989 406.833C61.4046 406.843 60.9453 406.711 60.9453 406.548C60.9453 406.386 61.4254 406.254 61.989 406.244C62.5527 406.234 63.0328 406.356 63.0328 406.518Z" fill="#194A96"/>
<path d="M74.7225 410.855C74.7225 411.018 68.1157 411.15 59.9641 411.15C51.8126 411.15 45.1953 411.018 45.1953 410.855C45.1953 410.693 51.8126 410.561 59.9641 410.561C68.1157 410.561 74.7225 410.693 74.7225 410.855Z" fill="#263238"/>
<path d="M63.273 409.139C63.1268 409.058 63.273 408.56 63.6279 408.123C63.9827 407.686 64.4733 407.402 64.5776 407.514C64.682 407.625 64.4524 408.042 64.108 408.529C63.7635 409.017 63.4191 409.22 63.273 409.139Z" fill="#263238"/>
<path d="M64.4001 409.738C64.2435 409.677 64.327 409.129 64.6715 408.56C65.0159 407.991 65.4751 407.646 65.6004 407.747C65.7256 407.849 65.5169 408.326 65.1933 408.854C64.8698 409.382 64.5566 409.799 64.4001 409.738Z" fill="#263238"/>
<path d="M50.5082 410.794C50.4352 410.845 50.1638 410.601 49.7776 410.195C49.3075 409.664 48.7868 409.177 48.2224 408.742C47.6596 408.34 47.0037 408.078 46.3124 407.98C45.7801 407.909 45.4357 407.98 45.4044 407.899C45.3731 407.818 45.707 407.605 46.3228 407.564C47.1344 407.541 47.9296 407.788 48.5773 408.265C49.1947 408.725 49.7185 409.294 50.122 409.941C50.4456 410.418 50.5917 410.743 50.5082 410.794Z" fill="#263238"/>
<path d="M63.3252 407.412C63.4087 407.544 63.0956 407.869 62.5946 408.042C62.0936 408.214 61.6448 408.153 61.6239 407.991C61.6031 407.828 61.9475 407.646 62.3963 407.493C62.8451 407.341 63.2313 407.27 63.3252 407.412Z" fill="#263238"/>
<path d="M63.0328 406.518C63.0328 406.681 62.5735 406.823 61.989 406.833C61.4046 406.843 60.9453 406.711 60.9453 406.548C60.9453 406.386 61.4254 406.254 61.989 406.244C62.5527 406.234 63.0328 406.356 63.0328 406.518Z" fill="#263238"/>
<path d="M81.6012 404.009L84.388 395.244L67.5421 390.043L63.3672 402.831L64.4109 403.217C68.972 404.903 87.7488 411.465 91.1513 411.516C94.8879 411.556 81.6012 404.009 81.6012 404.009Z" fill="#194A96"/>
<path d="M91.7449 410.824C91.7449 410.987 85.3364 409.209 77.5502 406.853C69.7639 404.496 63.4911 402.475 63.5433 402.323C63.5955 402.17 69.9414 403.948 77.738 406.294C85.5347 408.64 91.7971 410.672 91.7449 410.824Z" fill="#263238"/>
<path d="M81.3289 405.888C81.2141 405.766 81.4854 405.34 81.9864 404.984C82.4874 404.629 83.0302 404.537 83.0824 404.679C83.1345 404.822 82.8005 405.147 82.3413 405.472C81.8821 405.797 81.4437 406 81.3289 405.888Z" fill="#263238"/>
<path d="M82.2163 406.792C82.091 406.69 82.3311 406.183 82.8425 405.776C83.3539 405.37 83.8863 405.136 83.9802 405.268C84.0741 405.4 83.7193 405.797 83.2496 406.213C82.7799 406.63 82.352 406.853 82.2163 406.792Z" fill="#263238"/>
<path d="M68.6485 403.806C68.565 403.806 68.3875 403.532 68.1475 403.024C67.8608 402.383 67.5113 401.771 67.1038 401.196C66.6893 400.65 66.1449 400.211 65.5173 399.916C65.0267 399.702 64.6719 399.662 64.6719 399.581C64.6719 399.499 65.0476 399.377 65.653 399.52C66.4315 399.735 67.1121 400.2 67.5839 400.84C68.0308 401.455 68.3596 402.143 68.5545 402.871C68.6902 403.42 68.7216 403.806 68.6485 403.806Z" fill="#455A64"/>
<path d="M81.903 404.253C81.903 404.405 81.5481 404.629 81.0158 404.649C80.4835 404.669 80.066 404.476 80.0974 404.314C80.1287 404.151 80.5253 404.08 80.995 404.06C81.4646 404.04 81.8195 404.09 81.903 404.253Z" fill="#263238"/>
<path d="M81.9024 403.328C81.9024 403.481 81.3805 403.481 80.8065 403.328C80.2324 403.176 79.8254 402.902 79.8775 402.749C79.9297 402.597 80.4307 402.607 80.9735 402.749C81.5162 402.891 81.9441 403.166 81.9024 403.328Z" fill="#263238"/>
<path d="M93.5933 225.676L70.4016 223.939L35.2695 221.166L39.194 404.822L69.7023 404.436C69.7023 404.436 69.7023 402.404 69.6292 398.808L87.5188 403.572C87.5188 403.572 104.949 346.264 110.888 322.75C115.846 303.156 93.5933 225.676 93.5933 225.676ZM69.2952 370.286C68.836 327.89 68.3037 255.793 68.9403 246.976C68.9403 246.976 85.9323 310.449 86.0889 315.457C86.1932 318.484 76.7266 347.778 69.2952 370.286Z" fill="#455A64"/>
<path d="M69.8683 397.478C69.8683 397.641 63.0423 397.773 54.6298 397.773C46.2173 397.773 39.3809 397.641 39.3809 397.478C39.3809 397.316 46.2069 397.184 54.6298 397.184C63.0527 397.184 69.8683 397.316 69.8683 397.478Z" fill="#455A64"/>
<path d="M69.5977 390.876C70.5519 391.096 71.4872 391.388 72.3949 391.75L79.3774 394.116L86.36 396.493C87.3475 396.768 88.3053 397.135 89.2198 397.59C88.2002 397.452 87.1969 397.217 86.2243 396.889C84.4082 396.371 81.9137 395.599 79.1791 394.675C76.4446 393.751 73.9605 392.836 72.2487 392.136C71.3094 391.837 70.4171 391.413 69.5977 390.876V390.876Z" fill="#455A64"/>
<path d="M97.5496 314.889C95.6626 315.317 93.7355 315.555 91.7986 315.6C89.8775 315.838 87.9363 315.883 86.0059 315.732C87.8916 315.296 89.8192 315.054 91.7568 315.011C93.678 314.772 95.6196 314.731 97.5496 314.889V314.889Z" fill="#455A64"/>
<path d="M95.5555 318.22C94.0551 318.096 92.5778 317.782 91.1614 317.285C89.6872 316.972 88.2623 316.47 86.9238 315.792C88.4285 315.903 89.9104 316.214 91.3284 316.716C93.7081 317.387 95.6077 318.057 95.5555 318.22Z" fill="#455A64"/>
<path d="M71.7473 224.173C71.8875 225.332 71.9398 226.5 71.9038 227.667C71.9038 229.831 71.9038 232.817 71.9038 236.118C71.9038 237.753 71.9039 239.318 71.8412 240.76C71.8794 242.059 71.6303 243.351 71.1106 244.549C70.7404 245.365 70.1486 246.067 69.3989 246.58C69.1433 246.786 68.838 246.926 68.5117 246.986C68.5117 246.986 68.804 246.803 69.2736 246.417C69.9327 245.868 70.4449 245.171 70.7662 244.386C71.2014 243.222 71.3964 241.987 71.3402 240.75C71.3402 239.297 71.3402 237.702 71.3402 236.098C71.3402 232.796 71.4237 229.81 71.4864 227.657C71.483 226.491 71.5702 225.326 71.7473 224.173V224.173Z" fill="#455A64"/>
<path d="M54.2866 223.137C54.2978 223.285 54.2978 223.435 54.2866 223.584C54.2866 223.909 54.2866 224.345 54.2866 224.904C54.2866 226.082 54.1927 227.789 54.1196 229.983C53.9735 234.401 53.7647 240.75 53.5038 248.581C53.0132 264.284 52.5122 285.991 52.387 309.952C52.2618 333.913 52.5436 355.66 52.8671 371.353C53.0446 379.184 53.1802 385.573 53.2846 389.951C53.2846 392.135 53.3681 393.831 53.3994 395.03C53.3994 395.589 53.3994 396.046 53.3994 396.35C53.4107 396.499 53.4107 396.649 53.3994 396.797C53.3882 396.649 53.3882 396.499 53.3994 396.35C53.3994 396.036 53.3994 395.599 53.3264 395.04C53.3264 393.852 53.2115 392.155 53.1176 389.961C52.9402 385.573 52.7314 379.215 52.5227 371.363C52.0948 355.65 51.7608 333.944 51.886 309.952C52.0113 285.96 52.5749 264.244 53.1594 248.571C53.4516 240.719 53.723 234.35 53.9526 229.973C54.0674 227.799 54.1613 226.103 54.224 224.894C54.224 224.335 54.2866 223.878 54.3075 223.573C54.2898 223.429 54.2828 223.283 54.2866 223.137V223.137Z" fill="#455A64"/>
<path d="M85.995 227.759C86.0584 227.893 86.1107 228.033 86.1516 228.175C86.2455 228.48 86.3812 228.886 86.5482 229.414C86.8822 230.501 87.4145 232.106 87.999 234.199C89.1993 238.373 90.8171 244.437 92.6228 251.984C94.4284 259.531 96.4324 268.531 98.5198 278.566C100.607 288.601 102.81 299.653 104.782 311.313C105.033 312.776 105.262 314.229 105.461 315.681C105.461 316.067 105.534 316.463 105.534 316.839L105.346 317.916C105.21 318.637 105.106 319.358 104.939 320.059C104.344 322.883 103.676 325.645 102.956 328.347C101.536 333.751 100.033 338.921 98.5511 343.837C95.6078 353.67 92.7689 362.466 90.3578 369.85C87.9468 377.235 85.9324 383.177 84.5129 387.28L82.8638 392.004L82.415 393.233C82.3761 393.374 82.32 393.51 82.248 393.639C82.2753 393.494 82.3137 393.352 82.3629 393.212C82.4672 392.908 82.5925 392.501 82.7595 391.973L84.3146 387.219L89.9925 369.739C92.3514 362.344 95.1486 353.538 98.071 343.705C99.5323 338.789 101.025 333.609 102.444 328.215C103.154 325.524 103.822 322.771 104.417 319.957C104.584 319.256 104.678 318.545 104.803 317.834L104.991 316.768C104.991 316.423 104.939 316.087 104.918 315.752C104.72 314.32 104.5 312.867 104.25 311.415C102.267 299.764 100.075 288.713 97.9875 278.678C95.9001 268.642 94.0109 259.572 92.2574 252.065C90.504 244.559 88.9279 238.434 87.7903 234.249C87.2475 232.157 86.7465 230.542 86.4438 229.445L86.0994 228.196C86.0482 228.054 86.0132 227.908 85.995 227.759V227.759Z" fill="#455A64"/>
<path d="M69.2006 366.559C69.2846 367.031 69.3161 367.511 69.2945 367.991C69.2945 369.007 69.2945 370.337 69.3467 371.912C69.3467 375.314 69.4719 379.834 69.545 384.822C69.618 389.809 69.8163 394.329 69.9103 397.732C69.9103 399.306 69.9938 400.626 70.0251 401.652C70.0723 402.129 70.0723 402.608 70.0251 403.085C69.9099 402.619 69.847 402.142 69.8372 401.663C69.7537 400.738 69.6598 399.408 69.5554 397.752C69.3467 394.451 69.1484 389.88 69.0336 384.832C68.9187 379.784 68.9396 375.213 69.0336 371.912C69.0336 370.256 69.1066 368.864 69.1484 367.991C69.1272 367.513 69.1447 367.034 69.2006 366.559Z" fill="#455A64"/>
<path d="M93.5933 225.676L70.4016 223.939L35.2695 221.166L39.194 404.822L69.7023 404.436C69.7023 404.436 69.7023 402.404 69.6292 398.808L87.5188 403.572C87.5188 403.572 104.949 346.264 110.888 322.75C115.846 303.156 93.5933 225.676 93.5933 225.676ZM69.2952 370.286C68.836 327.89 68.3037 255.793 68.9403 246.976C68.9403 246.976 85.9323 310.449 86.0889 315.457C86.1932 318.484 76.7266 347.778 69.2952 370.286Z" fill="#263238"/>
<path d="M69.8683 397.478C69.8683 397.641 63.0423 397.773 54.6298 397.773C46.2173 397.773 39.3809 397.641 39.3809 397.478C39.3809 397.316 46.2069 397.184 54.6298 397.184C63.0527 397.184 69.8683 397.316 69.8683 397.478Z" fill="#455A64"/>
<path d="M69.5977 390.876C70.5519 391.096 71.4872 391.388 72.3949 391.75L79.3774 394.116L86.36 396.493C87.3475 396.768 88.3053 397.135 89.2198 397.59C88.2002 397.452 87.1969 397.217 86.2243 396.889C84.4082 396.371 81.9137 395.599 79.1791 394.675C76.4446 393.751 73.9605 392.836 72.2487 392.136C71.3094 391.837 70.4171 391.413 69.5977 390.876V390.876Z" fill="#455A64"/>
<path d="M97.5496 314.889C95.6626 315.317 93.7355 315.555 91.7986 315.6C89.8775 315.838 87.9363 315.883 86.0059 315.732C87.8916 315.296 89.8192 315.054 91.7568 315.011C93.678 314.772 95.6196 314.731 97.5496 314.889V314.889Z" fill="#455A64"/>
<path d="M95.5555 318.22C94.0551 318.096 92.5778 317.782 91.1614 317.285C89.6872 316.972 88.2623 316.47 86.9238 315.792C88.4285 315.903 89.9104 316.214 91.3284 316.716C93.7081 317.387 95.6077 318.057 95.5555 318.22Z" fill="#455A64"/>
<path d="M71.7473 224.173C71.8875 225.332 71.9398 226.5 71.9038 227.667C71.9038 229.831 71.9038 232.817 71.9038 236.118C71.9038 237.753 71.9039 239.318 71.8412 240.76C71.8794 242.059 71.6303 243.351 71.1106 244.549C70.7404 245.365 70.1486 246.067 69.3989 246.58C69.1433 246.786 68.838 246.926 68.5117 246.986C68.5117 246.986 68.804 246.803 69.2736 246.417C69.9327 245.868 70.4449 245.171 70.7662 244.386C71.2014 243.222 71.3964 241.987 71.3402 240.75C71.3402 239.297 71.3402 237.702 71.3402 236.098C71.3402 232.796 71.4237 229.81 71.4864 227.657C71.483 226.491 71.5702 225.326 71.7473 224.173V224.173Z" fill="#455A64"/>
<path d="M54.2866 223.137C54.2978 223.285 54.2978 223.435 54.2866 223.584C54.2866 223.909 54.2866 224.345 54.2866 224.904C54.2866 226.082 54.1927 227.789 54.1196 229.983C53.9735 234.401 53.7647 240.75 53.5038 248.581C53.0132 264.284 52.5122 285.991 52.387 309.952C52.2618 333.913 52.5436 355.66 52.8671 371.353C53.0446 379.184 53.1802 385.573 53.2846 389.951C53.2846 392.135 53.3681 393.831 53.3994 395.03C53.3994 395.589 53.3994 396.046 53.3994 396.35C53.4107 396.499 53.4107 396.649 53.3994 396.797C53.3882 396.649 53.3882 396.499 53.3994 396.35C53.3994 396.036 53.3994 395.599 53.3264 395.04C53.3264 393.852 53.2115 392.155 53.1176 389.961C52.9402 385.573 52.7314 379.215 52.5227 371.363C52.0948 355.65 51.7608 333.944 51.886 309.952C52.0113 285.96 52.5749 264.244 53.1594 248.571C53.4516 240.719 53.723 234.35 53.9526 229.973C54.0674 227.799 54.1613 226.103 54.224 224.894C54.224 224.335 54.2866 223.878 54.3075 223.573C54.2898 223.429 54.2828 223.283 54.2866 223.137V223.137Z" fill="#455A64"/>
<path d="M85.995 227.759C86.0584 227.893 86.1107 228.033 86.1516 228.175C86.2455 228.48 86.3812 228.886 86.5482 229.414C86.8822 230.501 87.4145 232.106 87.999 234.199C89.1993 238.373 90.8171 244.437 92.6228 251.984C94.4284 259.531 96.4324 268.531 98.5198 278.566C100.607 288.601 102.81 299.653 104.782 311.313C105.033 312.776 105.262 314.229 105.461 315.681C105.461 316.067 105.534 316.463 105.534 316.839L105.346 317.916C105.21 318.637 105.106 319.358 104.939 320.059C104.344 322.883 103.676 325.645 102.956 328.347C101.536 333.751 100.033 338.921 98.5511 343.837C95.6078 353.67 92.7689 362.466 90.3578 369.85C87.9468 377.235 85.9324 383.177 84.5129 387.28L82.8638 392.004L82.415 393.233C82.3761 393.374 82.32 393.51 82.248 393.639C82.2753 393.494 82.3137 393.352 82.3629 393.212C82.4672 392.908 82.5925 392.501 82.7595 391.973L84.3146 387.219L89.9925 369.739C92.3514 362.344 95.1486 353.538 98.071 343.705C99.5323 338.789 101.025 333.609 102.444 328.215C103.154 325.524 103.822 322.771 104.417 319.957C104.584 319.256 104.678 318.545 104.803 317.834L104.991 316.768C104.991 316.423 104.939 316.087 104.918 315.752C104.72 314.32 104.5 312.867 104.25 311.415C102.267 299.764 100.075 288.713 97.9875 278.678C95.9001 268.642 94.0109 259.572 92.2574 252.065C90.504 244.559 88.9279 238.434 87.7903 234.249C87.2475 232.157 86.7465 230.542 86.4438 229.445L86.0994 228.196C86.0482 228.054 86.0132 227.908 85.995 227.759V227.759Z" fill="#455A64"/>
<path d="M69.2006 366.559C69.2846 367.031 69.3161 367.511 69.2945 367.991C69.2945 369.007 69.2945 370.337 69.3467 371.912C69.3467 375.314 69.4719 379.834 69.545 384.822C69.618 389.809 69.8163 394.329 69.9103 397.732C69.9103 399.306 69.9938 400.626 70.0251 401.652C70.0723 402.129 70.0723 402.608 70.0251 403.085C69.9099 402.619 69.847 402.142 69.8372 401.663C69.7537 400.738 69.6598 399.408 69.5554 397.752C69.3467 394.451 69.1484 389.88 69.0336 384.832C68.9187 379.784 68.9396 375.213 69.0336 371.912C69.0336 370.256 69.1066 368.864 69.1484 367.991C69.1272 367.513 69.1447 367.034 69.2006 366.559Z" fill="#455A64"/>
<path d="M53.6381 137.531L71.3815 138.811C71.6216 136.779 71.966 129.05 71.966 129.05C71.966 129.05 79.3661 128.389 79.9088 121.259C80.4516 114.128 80.2219 97.6633 80.2219 97.6633C76.1653 95.6679 71.6346 94.7637 67.0984 95.0441C62.5623 95.3244 58.1855 96.7792 54.4209 99.258L53.2832 100.01L53.6381 137.531Z" fill="#E5BAAB"/>
<path d="M77.6972 109.821C77.5566 109.677 77.4625 109.496 77.4265 109.3C77.3905 109.105 77.4143 108.903 77.4948 108.72C77.5753 108.538 77.7091 108.382 77.8796 108.273C78.0501 108.164 78.2497 108.105 78.4539 108.105C78.658 108.105 78.8577 108.164 79.0282 108.273C79.1986 108.382 79.3324 108.538 79.413 108.72C79.4935 108.903 79.5173 109.105 79.4813 109.3C79.4453 109.496 79.3512 109.677 79.2106 109.821C79.1131 109.921 78.9957 110 78.8656 110.055C78.7355 110.109 78.5955 110.137 78.4539 110.137C78.3123 110.137 78.1722 110.109 78.0421 110.055C77.9121 110 77.7947 109.921 77.6972 109.821V109.821Z" fill="#263238"/>
<path d="M79.5761 108.298C79.4509 108.42 78.7725 107.841 77.76 107.77C76.7476 107.698 75.9857 108.166 75.8813 108.034C75.777 107.902 75.9544 107.759 76.2988 107.546C76.7429 107.262 77.2727 107.133 77.8018 107.18C78.3349 107.211 78.842 107.415 79.2421 107.759C79.5448 108.013 79.6388 108.227 79.5761 108.298Z" fill="#263238"/>
<path d="M67.8859 108.46C68.0512 108.578 68.1773 108.74 68.2486 108.927C68.3199 109.113 68.3333 109.316 68.2869 109.51C68.2406 109.704 68.1367 109.881 67.9881 110.018C67.8395 110.155 67.6528 110.246 67.4513 110.281C67.2497 110.315 67.0421 110.291 66.8544 110.212C66.6667 110.133 66.5071 110.001 66.3954 109.834C66.2838 109.667 66.2251 109.472 66.2266 109.273C66.2281 109.074 66.2897 108.879 66.4038 108.714C66.4822 108.601 66.5833 108.504 66.7011 108.429C66.8189 108.354 66.9509 108.304 67.0893 108.28C67.2277 108.256 67.3696 108.26 67.5065 108.291C67.6434 108.322 67.7724 108.379 67.8859 108.46V108.46Z" fill="#263238"/>
<path d="M68.5528 108.511C68.4275 108.623 67.7491 108.044 66.7367 107.973C65.7243 107.902 64.9623 108.379 64.858 108.247C64.7536 108.115 64.931 107.963 65.265 107.749C65.7175 107.476 66.247 107.348 66.7784 107.384C67.3099 107.421 67.8149 107.624 68.2188 107.963C68.5215 108.227 68.6154 108.461 68.5528 108.511Z" fill="#263238"/>
<path d="M72.0912 116.86C72.6252 116.699 73.1815 116.62 73.7403 116.626C74.0117 116.626 74.2309 116.576 74.2622 116.433C74.2886 116.171 74.2379 115.907 74.1161 115.672L73.4481 113.64C72.8054 111.903 72.3336 110.111 72.0391 108.287C72.8478 109.955 73.4943 111.693 73.97 113.478L74.5962 115.509C74.7469 115.845 74.7763 116.221 74.6797 116.576C74.6358 116.671 74.5695 116.754 74.486 116.82C74.4026 116.885 74.3044 116.93 74.1996 116.951C74.0506 116.97 73.8998 116.97 73.7508 116.951C73.1961 117.007 72.6358 116.976 72.0912 116.86V116.86Z" fill="#263238"/>
<path d="M68.7409 117.744C67.6971 117.074 71.5381 119.42 73.6047 119.451C73.2293 119.946 72.6922 120.302 72.0815 120.461C71.4708 120.619 70.8228 120.571 70.2439 120.324C68.0938 119.4 68.7409 117.744 68.7409 117.744Z" fill="white"/>
<path d="M71.9248 128.947C68.5358 128.808 65.2659 127.69 62.5312 125.737C62.5313 125.737 64.4621 131.009 71.8205 130.816L71.9248 128.947Z" fill="#D78776"/>
<path d="M54.682 106.337C54.515 106.276 49.2337 105.606 49.7347 111.68C50.2357 117.754 56.3728 115.245 56.3624 115.072C56.3519 114.9 54.682 106.337 54.682 106.337Z" fill="#E5BAAB"/>
<path d="M54.2235 113.091C54.2235 113.091 54.1295 113.173 53.9521 113.274C53.7008 113.4 53.4102 113.429 53.138 113.356C52.7154 113.136 52.3597 112.812 52.1068 112.416C51.854 112.02 51.7128 111.567 51.6976 111.101C51.6401 110.582 51.7043 110.058 51.8855 109.567C51.9273 109.373 52.0164 109.191 52.1454 109.037C52.2743 108.883 52.4393 108.762 52.6266 108.683C52.7498 108.645 52.8829 108.648 53.0042 108.692C53.1255 108.736 53.2278 108.819 53.2945 108.927C53.3885 109.089 53.3676 109.211 53.3989 109.222C53.4302 109.232 53.5242 109.11 53.3989 108.866C53.3554 108.717 53.2593 108.587 53.1276 108.5C52.9424 108.393 52.7229 108.357 52.5118 108.399C52.2631 108.467 52.0367 108.597 51.854 108.774C51.6713 108.952 51.5384 109.173 51.468 109.415C51.2429 109.958 51.1604 110.548 51.228 111.131C51.2396 111.674 51.4163 112.201 51.7359 112.646C52.0555 113.09 52.5035 113.433 53.0232 113.63C53.1943 113.665 53.3712 113.662 53.541 113.621C53.7108 113.581 53.8691 113.504 54.0043 113.396C54.2235 113.244 54.2548 113.102 54.2235 113.091Z" fill="#D78776"/>
<path d="M80.6931 95.0929C81.1155 95.0819 81.5297 94.9765 81.9036 94.7848C82.2775 94.5932 82.6011 94.3204 82.8493 93.9876C83.0976 93.6548 83.2639 93.2708 83.3353 92.8655C83.4067 92.4602 83.3814 92.0443 83.2612 91.65C83.1411 91.2557 82.9294 90.8936 82.6424 90.5916C82.3555 90.2897 82.0011 90.056 81.6065 89.9087C81.212 89.7614 80.7879 89.7044 80.3671 89.742C79.9463 89.7797 79.54 89.911 79.1797 90.1259C80.0525 89.4208 80.7637 88.5454 81.2672 87.5561C81.5107 87.0572 81.5912 86.4976 81.4979 85.9528C81.4046 85.4079 81.1419 84.904 80.7453 84.5089C80.286 84.2131 79.7547 84.0405 79.2049 84.0084C78.6552 83.9763 78.1064 84.0859 77.6141 84.3261C76.0589 84.9762 74.8273 86.256 73.2304 86.7943C71.6335 87.3327 69.8487 87.0686 68.137 87.1397C66.2163 87.173 64.356 87.799 62.8244 88.9274C61.5193 89.9253 60.6746 91.3867 60.476 92.9903C60.2709 92.7162 60.044 92.4581 59.7976 92.2184C58.9858 91.2755 57.8907 90.6041 56.6664 90.2986C56.5933 90.4307 58.0232 91.2026 59.3905 92.584C59.7627 92.9306 60.1114 93.3005 60.4342 93.6912C58.0545 93.4068 55.4348 93.3865 53.556 94.8288C52.7949 95.489 52.1934 96.305 51.7946 97.2182C51.3958 98.1314 51.2096 99.1192 51.2494 100.111C51.2494 102.081 52.0844 103.96 52.6793 105.85C52.8232 106.385 53.0712 106.888 53.4099 107.333L54.3075 112.411L57.5744 112.35L57.3657 101.695C57.3657 101.695 57.0317 97.2056 60.9979 97.6322C64.9641 98.0589 70.3915 102.376 78.0942 101.279C79.3581 101.21 80.5894 100.863 81.6951 100.263C82.2303 99.9331 82.6652 99.4702 82.9551 98.922C83.245 98.3738 83.3794 97.7602 83.3442 97.1447C83.2682 96.5322 82.9474 95.9734 82.4512 95.5894C81.9551 95.2054 81.3234 95.027 80.6931 95.0929V95.0929Z" fill="#263238"/>
<path d="M147.074 147.677L147.554 144.447C148.045 142.68 148.353 140.87 148.473 139.044C148.551 138.136 148.467 137.221 148.222 136.342C147.976 135.234 147.568 134.167 147.012 133.173C146.406 132.309 147.199 131.141 148.055 131.497C148.911 131.852 150.696 134.148 151.27 137.459C151.844 140.77 154.526 136.179 155.528 134.523C156.53 132.868 159.902 127.881 160.674 127.779C161.801 127.627 162.177 128.795 161.123 130.41C160.069 132.025 157.292 137.154 158.221 137.621C158.917 137.513 159.628 137.548 160.309 137.723C160.419 137.754 160.516 137.818 160.587 137.905C160.658 137.993 160.699 138.099 160.705 138.211C160.701 138.723 160.757 139.234 160.872 139.734C160.872 139.734 162.24 139.429 162.521 140.008C162.712 140.603 162.8 141.224 162.782 141.847C162.782 141.847 163.826 141.502 164.327 141.847C165.371 142.67 164.035 144.082 164.035 144.082C160.962 147.649 157.66 151.025 154.151 154.188L146.959 147.444" fill="#E5BAAB"/>
<path d="M160.453 139.958C160.146 140.586 159.734 141.159 159.232 141.654C158.815 142.142 158.293 142.67 157.677 143.31C157.356 143.642 157.007 143.948 156.633 144.224C156.403 144.402 156.125 144.512 155.833 144.541C155.541 144.57 155.246 144.516 154.984 144.387C154.841 144.305 154.72 144.192 154.631 144.056C154.542 143.92 154.488 143.765 154.473 143.605C154.452 143.318 154.517 143.032 154.66 142.782C154.918 142.405 155.196 142.042 155.495 141.695C156.028 141.045 156.466 140.435 156.831 139.907C157.182 139.31 157.583 138.743 158.032 138.211C157.858 138.887 157.561 139.526 157.155 140.1C156.776 140.753 156.358 141.384 155.903 141.989C155.625 142.313 155.368 142.653 155.13 143.005C154.942 143.34 154.953 143.757 155.255 143.909C155.426 143.979 155.612 144.004 155.796 143.981C155.979 143.957 156.153 143.887 156.299 143.777C156.646 143.522 156.973 143.244 157.28 142.944C157.907 142.375 158.449 141.837 158.898 141.38C159.366 140.856 159.887 140.379 160.453 139.958Z" fill="#D78776"/>
<path d="M162.282 142.04C161.974 142.582 161.58 143.073 161.113 143.493C160.641 143.984 160.128 144.436 159.578 144.844C159.248 145.087 158.899 145.304 158.535 145.494C158.318 145.599 158.085 145.671 157.846 145.707C157.701 145.73 157.552 145.723 157.41 145.686C157.268 145.649 157.135 145.584 157.021 145.494C156.828 145.3 156.707 145.049 156.674 144.781C156.642 144.513 156.702 144.243 156.844 144.011C157.055 143.649 157.303 143.308 157.585 142.995C158.044 142.477 158.472 141.979 158.9 141.482C159.662 140.628 160.163 140.131 160.225 140.171C159.95 140.729 159.599 141.248 159.182 141.715L158.013 143.33C157.766 143.618 157.543 143.923 157.345 144.244C157.264 144.374 157.227 144.525 157.238 144.676C157.249 144.827 157.308 144.97 157.407 145.087C157.595 145.26 157.992 145.189 158.336 145.026C158.679 144.854 159.01 144.66 159.328 144.448C159.87 144.071 160.389 143.664 160.883 143.229C161.298 142.779 161.767 142.38 162.282 142.04V142.04Z" fill="#D78776"/>
<path d="M162.708 144.946C162.76 144.946 162.708 145.403 162.217 145.961C162.068 146.134 161.886 146.276 161.679 146.379C161.473 146.482 161.248 146.544 161.017 146.561C160.718 146.563 160.427 146.466 160.192 146.286C160.063 146.181 159.959 146.049 159.889 145.899C159.818 145.75 159.783 145.587 159.785 145.423C159.868 144.905 160.083 144.416 160.412 144.001C160.632 143.666 160.872 143.343 161.132 143.036C161.58 142.508 161.904 142.234 161.967 142.284C162.029 142.335 161.8 142.68 161.445 143.3C161.236 143.656 161.027 143.981 160.839 144.316C160.588 144.674 160.414 145.078 160.328 145.504C160.336 145.677 160.412 145.839 160.541 145.959C160.669 146.078 160.839 146.144 161.017 146.144C161.363 146.133 161.694 146 161.946 145.768C162.415 145.281 162.635 144.905 162.708 144.946Z" fill="#D78776"/>
<path d="M146.291 143.482C146.291 143.482 118.914 169.698 115.073 169.891C110.689 170.095 97.2041 151.486 97.2041 151.486C88.5724 138.525 77.1853 136.433 73.0312 136.108V134.503L52.6263 132.878C52.6263 132.878 52.6263 134.584 52.6263 136.077H43.6188C43.6188 136.077 27.441 135.356 25.0195 156.504L36.6467 165.453L41.4166 182.72C43.0761 188.733 37.1477 198.312 34.3192 213.822C33.883 216.408 34.3264 219.061 35.5821 221.379L94.5008 227.971L91.3696 184.132L90.4198 173.975C95.2732 180.425 103.988 189.546 114.666 189.343C132.879 189.008 158.179 151.76 158.179 151.76L146.291 143.482Z" fill="#E0E0E0"/>
<path d="M66.164 134.219C66.2652 135.12 66.2652 136.029 66.164 136.931C66.0118 139.187 65.6979 141.431 65.2246 143.645L65.1516 143.98L64.8384 143.817C64.1287 143.452 63.3877 143.066 62.6362 142.639C59.7137 140.963 57.2192 139.237 55.33 138.038C54.3102 137.434 53.3274 136.773 52.3867 136.057C52.6991 136.146 52.9976 136.276 53.2739 136.443C53.8166 136.738 54.5994 137.164 55.5388 137.723C57.4384 138.84 59.9642 140.526 62.8449 142.182C63.5755 142.599 64.3061 142.995 65.0159 143.36L64.6297 143.533C65.2351 140.912 65.5273 138.566 65.7465 136.9C65.8297 135.999 65.9692 135.104 66.164 134.219V134.219Z" fill="#FAFAFA"/>
<path d="M73.0938 136.22C72.9627 137.092 72.7674 137.954 72.5094 138.8C72.311 139.602 72.1023 140.557 71.7474 141.593C71.5627 142.141 71.3431 142.677 71.0899 143.198C71.0169 143.385 70.8855 143.545 70.7141 143.655C70.5953 143.726 70.4552 143.756 70.3167 143.739C70.1783 143.722 70.0498 143.66 69.9522 143.564C69.7566 143.283 69.5988 142.979 69.4825 142.66C68.4388 140.354 67.6142 138.261 67.0089 136.728C66.6282 135.924 66.3377 135.083 66.1426 134.219C66.6301 134.966 67.0392 135.759 67.3637 136.585C68.063 138.079 68.992 140.151 69.9835 142.456C70.0798 142.713 70.1985 142.961 70.3384 143.198C70.3906 143.198 70.3384 143.198 70.4323 143.198C70.5109 143.136 70.572 143.056 70.6098 142.964C70.8595 142.465 71.0825 141.953 71.2777 141.43C71.643 140.415 71.8936 139.48 72.1336 138.698C72.3412 137.835 72.664 137.002 73.0938 136.22V136.22Z" fill="#FAFAFA"/>
<path d="M69.2942 207.159C69.2443 206.922 69.2164 206.68 69.2107 206.438C69.2107 205.91 69.1689 205.233 69.0854 204.407C69.0019 202.538 68.8767 199.948 68.7306 196.768C68.4801 190.268 68.1252 181.38 67.7495 171.568C67.3737 161.756 67.1337 152.868 66.9249 146.367C66.8518 143.178 66.7892 140.588 66.737 138.719C66.737 137.866 66.737 137.175 66.737 136.687C66.71 136.444 66.71 136.199 66.737 135.956C66.7851 136.194 66.8096 136.435 66.8101 136.677C66.8101 137.205 66.8936 137.896 66.9458 138.709C67.0293 140.567 67.1545 143.158 67.3007 146.337C67.5511 152.838 67.8956 161.725 68.2818 171.537C68.6679 181.349 68.8871 190.237 69.1063 196.748C69.1794 199.927 69.242 202.517 69.2942 204.386C69.2942 205.25 69.2942 205.94 69.2942 206.469C69.3188 206.698 69.3188 206.93 69.2942 207.159Z" fill="#F5F5F5"/>
<path d="M65.5801 140.639L67.2918 145.23L68.7635 140.304L66.4777 135.367L65.5801 140.639Z" fill="#194A96"/>
<path d="M67.6038 143.858L66.4766 195.539L74.4924 211.852L77.6549 193.497L67.6038 143.858Z" fill="#194A96"/>
<path d="M115.365 176.281C115.365 176.281 115.365 176.434 115.365 176.687L115.303 177.073L115.125 176.687C114.721 175.66 114.489 174.577 114.437 173.478C114.264 172.252 114.415 171.004 114.875 169.852C115.031 169.852 114.875 171.477 114.979 173.447C115.063 174.849 115.292 176.048 115.365 176.627H115.125C115.219 176.352 115.324 176.281 115.365 176.281Z" fill="#FAFAFA"/>
<path d="M117.713 176.108C116.935 175.313 116.356 174.354 116.022 173.305C115.52 172.336 115.246 171.271 115.219 170.187C115.75 171.131 116.184 172.125 116.513 173.152C117.011 174.097 117.413 175.087 117.713 176.108V176.108Z" fill="#FAFAFA"/>
<path d="M156.468 154.229C154.21 153.067 152.041 151.75 149.976 150.288C147.812 148.973 145.747 147.51 143.797 145.91C146.053 147.082 148.223 148.405 150.289 149.872C152.452 151.18 154.517 152.636 156.468 154.229Z" fill="#FAFAFA"/>
<path d="M42.6686 162.527C42.6686 162.527 38.3267 191.984 40.3829 193.629C51.7387 202.923 67.5199 207.799 73.156 209.333C73.9806 209.14 74.9408 208.886 76.0472 208.54C77.0062 208.244 77.9063 207.791 78.7087 207.2C79.7333 206.5 80.6536 205.666 81.4433 204.721C81.5625 204.518 81.7436 204.357 81.9613 204.259C82.1791 204.16 82.4229 204.13 82.6589 204.173C82.895 204.215 83.1117 204.328 83.2791 204.495C83.4465 204.663 83.5563 204.876 83.5934 205.107C83.6456 206.123 81.9756 208.733 78.834 210.643C78.834 210.643 86.067 221.968 88.3737 222.994C90.6803 224.02 97.2767 226.905 96.1599 227.453C95.0431 228.002 87.0168 225.737 87.0168 225.737L70.7346 221.501C70.7346 221.501 16.878 213.284 20.458 189.241C22.6603 174.503 25.0609 161.227 25.9272 157.865L42.6686 162.527Z" fill="#E5BAAB"/>
<path d="M25.0195 156.494L20.2392 188.602C19.1225 198.485 25.9276 206.336 35.0811 210.755C49.015 217.469 69.7017 222.263 69.5243 222.233C69.3469 222.202 70.9229 207.901 70.9229 207.901C70.9229 207.901 41.9176 195.712 41.0095 190.43C40.1015 185.148 44.6939 163.208 44.6939 163.208L25.0195 156.494Z" fill="#E0E0E0"/>
<path d="M69.4823 222.233C69.4714 222.149 69.4714 222.063 69.4823 221.979C69.4823 221.776 69.4823 221.532 69.5345 221.238C69.5867 220.537 69.6598 219.592 69.7641 218.383C69.9833 215.864 70.3069 212.289 70.6931 207.891L70.8079 208.074L56.1956 201.197L52.0207 199.166C50.6116 198.434 49.1922 197.632 47.7831 196.748C46.3535 195.85 44.9803 194.87 43.6708 193.813C43.0133 193.274 42.3557 192.705 41.7295 192.106C41.3764 191.804 41.0919 191.434 40.8945 191.019C40.7838 190.818 40.703 190.603 40.6544 190.379C40.5859 190.167 40.537 189.95 40.5083 189.729C40.0386 186.215 40.9989 182.904 41.552 179.745C42.1052 176.586 42.6584 173.508 43.1803 170.603C44.224 164.773 45.1738 159.531 45.967 155.103C46.3953 153.141 46.6399 151.145 46.6976 149.14C46.7178 147.632 46.3971 146.137 45.7583 144.763C45.3485 143.895 44.7668 143.115 44.0466 142.467C43.5456 142.03 43.2429 141.858 43.2533 141.827C43.5638 141.979 43.8546 142.167 44.1196 142.386C44.886 143.015 45.5082 143.794 45.9462 144.671C46.6312 146.067 46.9878 147.594 46.9899 149.14C46.9666 151.164 46.7464 153.181 46.3323 155.164C45.5704 159.603 44.6624 164.854 43.6604 170.694C43.149 173.61 42.6167 176.677 42.0635 179.836C41.9278 180.628 41.7817 181.431 41.6355 182.243C41.4894 183.056 41.3329 183.848 41.218 184.661C40.9436 186.303 40.898 187.974 41.0824 189.628C41.1154 189.83 41.1607 190.03 41.218 190.227C41.2591 190.422 41.3294 190.61 41.4268 190.786C41.5987 191.145 41.8479 191.463 42.1574 191.72C42.7732 192.309 43.4099 192.868 44.057 193.396C45.349 194.443 46.7049 195.413 48.1171 196.301C49.5053 197.185 50.9039 197.977 52.2921 198.708L56.467 200.74L70.9644 207.769L71.0792 207.83V207.952C70.6096 212.35 70.2338 215.915 69.9729 218.434C69.8268 219.633 69.7224 220.587 69.6389 221.278C69.5971 221.576 69.5658 221.82 69.545 222.009C69.5315 222.086 69.5106 222.161 69.4823 222.233V222.233Z" fill="#FAFAFA"/>
<path d="M66.7903 205.94C66.8213 206.676 66.7617 207.413 66.6129 208.134C66.4354 209.475 66.1432 211.324 65.757 213.355C65.3708 215.387 64.9325 217.215 64.5776 218.525C64.4344 219.248 64.1922 219.948 63.8574 220.608C63.8938 219.873 64.0093 219.145 64.2019 218.434C64.508 216.904 64.8559 215.177 65.2456 213.254C65.6108 210.788 66.1266 208.346 66.7903 205.94V205.94Z" fill="#FAFAFA"/>
<path d="M69.482 222.232C69.3082 222.232 69.1356 222.204 68.9706 222.151L67.5407 221.816L62.322 220.475C57.907 219.317 51.7699 217.794 45.1944 215.447C42.1 214.346 39.087 213.04 36.1765 211.537C33.7988 210.306 31.5296 208.886 29.3922 207.291C27.9501 206.217 26.5897 205.042 25.3217 203.777C24.8729 203.33 24.5493 202.974 24.278 202.761C24.1537 202.641 24.0482 202.504 23.9648 202.354C23.9648 202.354 24.4867 202.832 25.4261 203.675C26.7494 204.874 28.1434 205.996 29.601 207.037C31.7594 208.548 34.0266 209.906 36.3853 211.1C39.2885 212.568 42.2869 213.851 45.3614 214.939C51.8951 217.276 58.0218 218.85 62.4055 220.11L67.6242 221.603L69.0332 222.039C69.1907 222.085 69.3416 222.15 69.482 222.232V222.232Z" fill="#FAFAFA"/>
<path d="M69.8372 209.373C69.8434 209.555 69.7939 209.734 69.695 209.888C69.5961 210.042 69.4522 210.164 69.2819 210.238C69.1115 210.312 68.9223 210.335 68.7383 210.304C68.5544 210.273 68.3841 210.19 68.2492 210.064C68.1143 209.939 68.0209 209.777 67.9808 209.599C67.9408 209.422 67.956 209.237 68.0245 209.068C68.093 208.899 68.2116 208.754 68.3653 208.651C68.519 208.548 68.7007 208.491 68.8874 208.489C69.133 208.487 69.3699 208.577 69.5475 208.743C69.725 208.908 69.829 209.134 69.8372 209.373Z" fill="#FAFAFA"/>
</svg>
