<svg width="402" height="348" viewBox="0 0 402 348" fill="none" xmlns="http://www.w3.org/2000/svg">
<path d="M1 342.32H401" stroke="#263238" stroke-linecap="round" stroke-linejoin="round"/>
<path d="M308.834 207.387V207.489C308.834 207.656 308.871 207.833 308.946 208.019C309.362 210.057 309.672 212.116 309.876 214.186C310.053 215.962 310.192 217.99 310.229 220.25C310.318 225.474 309.96 230.695 309.16 235.858C308.955 237.216 308.713 238.648 308.425 240.081C307.969 242.443 307.411 244.917 306.723 247.475C306.416 248.666 306.062 249.884 305.69 251.112L305.253 252.609C305.086 253.214 304.918 253.819 304.76 254.47C303.691 258.602 302.837 262.787 302.202 267.008C301.412 272.263 300.919 277.481 300.649 282.42C300.286 289.005 300.305 295.088 300.463 300.092C300.458 300.176 300.458 300.26 300.463 300.343C300.63 305.431 300.947 309.421 301.161 311.691C301.281 313.021 301.365 313.774 301.374 313.821" stroke="#263238" stroke-linecap="round" stroke-linejoin="round"/>
<path d="M308.863 207.517C307.47 206.279 305.792 205.407 303.979 204.978L308.863 207.517Z" fill="white"/>
<path d="M308.863 207.517C307.47 206.279 305.792 205.407 303.979 204.978" stroke="#263238" stroke-linecap="round" stroke-linejoin="round"/>
<path d="M309.904 214.214L312.378 211.973" stroke="#263238" stroke-linecap="round" stroke-linejoin="round"/>
<path d="M306.75 247.485C306.621 246.832 306.428 246.193 306.174 245.578C305.807 244.675 305.309 243.832 304.695 243.076C304.237 242.507 303.715 241.992 303.142 241.541" stroke="#263238" stroke-linecap="round" stroke-linejoin="round"/>
<path d="M304.77 254.461C305.12 253.592 305.645 252.804 306.312 252.147C306.98 251.489 307.775 250.976 308.648 250.638" stroke="#263238" stroke-linecap="round" stroke-linejoin="round"/>
<path d="M300.473 289.062C301.3 288.057 301.924 284.253 302.258 282.207C302.342 281.723 302.407 281.277 302.472 281.007" fill="white"/>
<path d="M300.473 289.062C301.3 288.057 301.924 284.253 302.258 282.207C302.342 281.723 302.407 281.277 302.472 281.007" stroke="#263238" stroke-linecap="round" stroke-linejoin="round"/>
<path d="M294.101 295.963C294.376 295.935 294.653 295.935 294.928 295.963C296.147 296.082 297.31 296.53 298.293 297.259C299.276 297.988 300.042 298.971 300.509 300.102" fill="white"/>
<path d="M294.101 295.963C294.376 295.935 294.653 295.935 294.928 295.963C296.147 296.082 297.31 296.53 298.293 297.259C299.276 297.988 300.042 298.971 300.509 300.102" stroke="#263238" stroke-linecap="round" stroke-linejoin="round"/>
<path d="M308.453 240.156C308.453 240.156 308.89 225.06 300.603 219.582" stroke="#263238" stroke-linecap="round" stroke-linejoin="round"/>
<path d="M309.16 272.514C310.248 276.039 302.649 282.745 302.649 282.745C302.649 282.745 292.613 281.49 291.487 277.974C290.362 274.458 292.938 268.672 297.812 267.184C302.686 265.696 308.109 268.989 309.16 272.514Z" fill="#2D9CDB"/>
<path d="M317.615 229.793C316.685 233.514 309.467 236.183 309.467 236.183C309.467 236.183 304.509 230.389 305.439 226.65C306.37 222.911 310.378 218.799 313.745 219.664C317.113 220.529 318.582 226.054 317.615 229.793Z" fill="#2D9CDB"/>
<path d="M288.791 285.666C293.302 287.414 296.064 295.395 296.064 295.395C296.064 295.395 288.623 299.404 284.121 297.646C279.619 295.888 274.82 290.939 276.122 287.637C277.424 284.336 284.279 283.87 288.791 285.666Z" fill="#2D9CDB"/>
<path d="M298.676 241.764C299.589 242.532 300.636 243.125 301.764 243.513C302.33 243.696 302.936 243.72 303.515 243.582C304.094 243.444 304.624 243.15 305.047 242.731C305.978 241.624 305.754 239.941 305.15 238.555C303.941 235.904 299.495 231.393 296.081 232.686C291.151 234.574 296.481 240.155 298.676 241.764Z" fill="#2D9CDB"/>
<path d="M308.768 248.526C308.117 249.326 307.429 250.34 307.792 251.316C307.994 251.726 308.326 252.058 308.737 252.26C309.147 252.462 309.613 252.523 310.061 252.432C310.953 252.221 311.786 251.81 312.498 251.232C314.238 250.023 317.809 247.512 315.53 245.122C313.252 242.731 310.089 246.842 308.768 248.526Z" fill="#2D9CDB"/>
<path d="M294.213 214.792C293.837 214.813 293.478 214.953 293.186 215.19C292.894 215.427 292.684 215.749 292.585 216.112C292.436 216.977 293.153 217.731 293.841 218.261C295.571 219.6 300.77 223.191 301.924 219.721C303.021 216.447 296.501 214.54 294.213 214.792Z" fill="#2D9CDB"/>
<path d="M303.784 203.388C302.715 203.49 301.645 203.099 300.566 203.165C299.487 203.23 298.306 204.095 298.538 205.155C298.771 206.215 299.971 206.448 300.957 206.504C302.654 206.613 304.359 206.497 306.026 206.16C306.421 206.122 306.786 205.936 307.049 205.639C307.486 204.997 306.798 204.141 306.054 203.918C305.29 203.816 304.539 203.636 303.812 203.379L303.784 203.388Z" fill="#2D9CDB"/>
<path d="M314.256 210.762C315.326 210.762 316.367 210.335 317.446 210.325C318.525 210.316 319.772 211.107 319.595 212.186C319.418 213.264 318.265 213.571 317.279 213.692C315.593 213.916 313.886 213.916 312.2 213.692C311.801 213.683 311.421 213.52 311.14 213.237C310.666 212.632 311.298 211.73 312.014 211.451C312.773 211.309 313.512 211.081 314.219 210.772L314.256 210.762Z" fill="#2D9CDB"/>
<path d="M313.197 290.028C313.443 289.771 313.773 289.61 314.127 289.572C314.366 289.595 314.589 289.7 314.759 289.87C314.929 290.04 315.034 290.263 315.057 290.502C315.108 290.962 315.051 291.427 314.889 291.86C314.155 294.307 305.969 311.97 304.081 308.798C302.974 306.938 305.709 300.715 306.518 298.957C308.062 295.527 310.342 292.479 313.197 290.028Z" fill="#2D9CDB"/>
<path d="M309.206 208.532C309.206 208.532 308.714 204.245 309.746 203.882" stroke="#263238" stroke-linecap="round" stroke-linejoin="round"/>
<path d="M308.295 204.058C308.822 202.544 309.732 201.192 310.936 200.133C312.229 199.203 314.304 199.128 315.243 200.421C316.294 201.863 315.243 204.049 313.634 204.821C312.025 205.593 310.127 205.36 308.36 205.109C308.36 204.849 308.36 204.588 308.36 204.328L308.295 204.058Z" fill="#2D9CDB"/>
<path d="M312.703 342.106C303.935 343.585 294.981 343.585 286.213 342.106L275.907 311.7H323.009L312.703 342.106Z" fill="white" stroke="#263238" stroke-linecap="round" stroke-linejoin="round"/>
<path d="M132.947 122.431V122.533C132.984 122.7 133.021 122.877 133.059 123.063C133.48 125.1 133.79 127.159 133.989 129.23C134.165 131.006 134.296 133.034 134.342 135.294C134.438 140.505 134.089 145.713 133.3 150.865C133.096 152.223 132.854 153.655 132.566 155.087C132.11 157.45 131.542 159.924 130.863 162.482C130.547 163.672 130.203 164.891 129.831 166.119C129.682 166.621 129.533 167.114 129.394 167.616C129.254 168.118 129.05 168.825 128.892 169.476" stroke="#263238" stroke-linecap="round" stroke-linejoin="round"/>
<path d="M132.967 122.56C132.299 121.976 131.569 121.467 130.79 121.044C129.931 120.591 129.019 120.247 128.074 120.021" fill="white"/>
<path d="M132.967 122.56C132.299 121.976 131.569 121.467 130.79 121.044C129.931 120.591 129.019 120.247 128.074 120.021" stroke="#263238" stroke-linecap="round" stroke-linejoin="round"/>
<path d="M134.007 129.258L136.49 127.017" stroke="#263238" stroke-linecap="round" stroke-linejoin="round"/>
<path d="M130.864 162.527C130.732 161.873 130.535 161.235 130.278 160.62C129.912 159.717 129.413 158.874 128.799 158.118C128.341 157.549 127.82 157.034 127.246 156.583" stroke="#263238" stroke-linecap="round" stroke-linejoin="round"/>
<path d="M128.884 169.465C129.231 168.596 129.754 167.808 130.42 167.15C131.085 166.492 131.88 165.979 132.753 165.643" stroke="#263238" stroke-linecap="round" stroke-linejoin="round"/>
<path d="M124.576 204.104C125.404 203.099 126.036 199.295 126.371 197.249C126.446 196.765 126.52 196.319 126.576 196.049" fill="white"/>
<path d="M124.576 204.104C125.404 203.099 126.036 199.295 126.371 197.249C126.446 196.765 126.52 196.319 126.576 196.049" stroke="#263238" stroke-linecap="round" stroke-linejoin="round"/>
<path d="M118.206 210.968C118.484 210.94 118.765 210.94 119.043 210.968C120.261 211.09 121.422 211.539 122.405 212.267C123.388 212.996 124.154 213.978 124.624 215.107" fill="white"/>
<path d="M118.206 210.968C118.484 210.94 118.765 210.94 119.043 210.968C120.261 211.09 121.422 211.539 122.405 212.267C123.388 212.996 124.154 213.978 124.624 215.107" stroke="#263238" stroke-linecap="round" stroke-linejoin="round"/>
<path d="M132.557 155.161C132.557 155.161 133.004 140.065 124.707 134.587" stroke="#263238" stroke-linecap="round" stroke-linejoin="round"/>
<path d="M133.309 187.557C134.388 191.082 126.799 197.788 126.799 197.788C126.799 197.788 116.753 196.533 115.637 193.017C114.521 189.501 117.097 183.716 121.962 182.227C126.826 180.739 132.221 184.041 133.309 187.557Z" fill="#2D9CDB"/>
<path d="M141.738 144.836C140.808 148.557 133.59 151.226 133.59 151.226C133.59 151.226 128.577 145.432 129.544 141.693C130.511 137.954 134.474 133.842 137.841 134.707C141.208 135.572 142.668 141.097 141.738 144.836Z" fill="#2D9CDB"/>
<path d="M112.903 200.709C117.415 202.467 120.186 210.438 120.186 210.438C120.186 210.438 112.745 214.447 108.234 212.689C103.723 210.931 98.933 205.983 100.245 202.681C101.556 199.379 108.383 198.951 112.903 200.709Z" fill="#2D9CDB"/>
<path d="M122.79 156.808C123.7 157.575 124.744 158.168 125.869 158.557C126.436 158.74 127.041 158.764 127.62 158.626C128.199 158.488 128.729 158.194 129.153 157.775C130.083 156.668 129.859 154.985 129.255 153.599C128.046 150.948 123.609 146.437 120.186 147.73C115.266 149.599 120.586 155.18 122.79 156.808Z" fill="#2D9CDB"/>
<path d="M132.873 163.579C132.231 164.378 131.542 165.439 131.896 166.369C132.098 166.779 132.43 167.111 132.841 167.313C133.251 167.515 133.717 167.575 134.165 167.485C135.058 167.275 135.892 166.865 136.602 166.285C138.342 165.085 141.913 162.565 139.635 160.174C137.356 157.784 134.24 161.886 132.873 163.579Z" fill="#2D9CDB"/>
<path d="M118.317 129.834C117.942 129.857 117.584 129.997 117.292 130.233C117 130.47 116.79 130.792 116.69 131.154C116.541 132.019 117.257 132.773 117.955 133.303C119.685 134.642 124.875 138.233 126.037 134.763C127.126 131.489 120.615 129.582 118.317 129.834Z" fill="#2D9CDB"/>
<path d="M127.888 118.43C126.819 118.532 125.749 118.141 124.679 118.207C123.61 118.272 122.41 119.137 122.652 120.197C122.893 121.257 124.075 121.49 125.07 121.546C126.764 121.655 128.466 121.539 130.13 121.202C130.527 121.165 130.896 120.978 131.162 120.681C131.59 120.039 130.902 119.183 130.167 118.96C129.4 118.859 128.646 118.678 127.916 118.421L127.888 118.43Z" fill="#2D9CDB"/>
<path d="M138.361 125.806C139.44 125.806 140.482 125.379 141.552 125.369C142.621 125.36 143.877 126.151 143.709 127.229C143.542 128.308 142.37 128.615 141.384 128.736C139.699 128.96 137.991 128.96 136.306 128.736C135.907 128.727 135.527 128.564 135.245 128.281C134.771 127.676 135.403 126.774 136.129 126.495C136.887 126.35 137.626 126.123 138.333 125.816L138.361 125.806Z" fill="#2D9CDB"/>
<path d="M137.3 205.072C137.547 204.816 137.876 204.655 138.23 204.616C138.467 204.644 138.688 204.751 138.857 204.92C139.026 205.088 139.133 205.309 139.16 205.546C139.208 206.007 139.148 206.472 138.984 206.904C138.258 209.351 130.064 227.014 128.185 223.842C127.069 221.982 129.803 215.759 130.612 214.001C132.159 210.57 134.443 207.522 137.3 205.072Z" fill="#2D9CDB"/>
<path d="M133.311 123.592C133.311 123.592 132.818 119.304 133.86 118.941" stroke="#263238" stroke-linecap="round" stroke-linejoin="round"/>
<path d="M132.437 119.1C132.957 117.582 133.868 116.228 135.078 115.175C136.371 114.245 138.436 114.17 139.375 115.463C140.426 116.905 139.375 119.091 137.766 119.863C136.157 120.635 134.269 120.402 132.502 120.151C132.502 119.891 132.502 119.63 132.502 119.37L132.437 119.1Z" fill="#2D9CDB"/>
<path d="M15.1016 225.246V133.341" stroke="#263238" stroke-linecap="round" stroke-linejoin="round"/>
<path d="M302.044 225.245H290.688" stroke="#263238" stroke-linecap="round" stroke-linejoin="round"/>
<path d="M391.104 225.245H367.972" stroke="#263238" stroke-linecap="round" stroke-linejoin="round"/>
<path d="M289.646 85.6248H330.637V46.5781" stroke="#263238" stroke-linecap="round" stroke-linejoin="round"/>
<path d="M50.7344 73.7012H94.2828V105.465H142.017" stroke="#263238" stroke-linecap="round" stroke-linejoin="round"/>
<path d="M25.0439 181.27V111.083" stroke="#263238" stroke-linecap="round" stroke-linejoin="round"/>
<path d="M44.502 80.6201V135.628" stroke="#263238" stroke-linecap="round" stroke-linejoin="round"/>
<path d="M63.9512 80.6201V129.247" stroke="#263238" stroke-linecap="round" stroke-linejoin="round"/>
<path d="M83.4004 80.6201V165.68" stroke="#263238" stroke-linecap="round" stroke-linejoin="round"/>
<path d="M176.57 68.5563V12.6279H255.752V68.5563" stroke="#263238" stroke-linecap="round" stroke-linejoin="round"/>
<path d="M182.375 40.4103V19.2686H197.015" stroke="#263238" stroke-linecap="round" stroke-linejoin="round"/>
<path d="M200.232 40.4103V19.2686H214.873" stroke="#263238" stroke-linecap="round" stroke-linejoin="round"/>
<path d="M218.091 40.4103V19.2686H232.731" stroke="#263238" stroke-linecap="round" stroke-linejoin="round"/>
<path d="M235.95 40.4103V19.2686H250.59" stroke="#263238" stroke-linecap="round" stroke-linejoin="round"/>
<path d="M182.375 68.5577V47.416H197.015" stroke="#263238" stroke-linecap="round" stroke-linejoin="round"/>
<path d="M200.232 68.5577V47.416H214.873" stroke="#263238" stroke-linecap="round" stroke-linejoin="round"/>
<path d="M218.091 68.5577V47.416H232.731" stroke="#263238" stroke-linecap="round" stroke-linejoin="round"/>
<path d="M235.95 68.5577V47.416H250.59" stroke="#263238" stroke-linecap="round" stroke-linejoin="round"/>
<path d="M336.979 51.4141V121.499" stroke="#263238" stroke-linecap="round" stroke-linejoin="round"/>
<path d="M365.729 220.111H367.971" stroke="#263238" stroke-linecap="round" stroke-linejoin="round"/>
<path d="M354.216 71.542V150.007" stroke="#263238" stroke-linecap="round" stroke-linejoin="round"/>
<path d="M371.459 200.076V220.111H385.216" stroke="#263238" stroke-linecap="round" stroke-linejoin="round"/>
<path d="M371.459 97.1201V150.407" stroke="#263238" stroke-linecap="round" stroke-linejoin="round"/>
<path d="M388.695 137.553V220.111H391.83" stroke="#263238" stroke-linecap="round" stroke-linejoin="round"/>
<path d="M178.654 226.93H1V342.321H178.654V226.93Z" fill="white" stroke="#263238" stroke-linecap="round" stroke-linejoin="round"/>
<path d="M1 226.93L89.8269 284.625L178.654 226.93H1Z" fill="white" stroke="#263238" stroke-linecap="round" stroke-linejoin="round"/>
<path d="M63.123 267.278L1 342.321" stroke="#263238" stroke-linecap="round" stroke-linejoin="round"/>
<path d="M117.014 267.278L179.137 342.321" stroke="#263238" stroke-linecap="round" stroke-linejoin="round"/>
<path d="M273.722 79.6908H232.425C231.235 79.6922 230.068 80.0121 229.044 80.6173C228.02 81.2225 227.177 82.0909 226.602 83.1323C225.587 84.9638 224.101 86.4903 222.296 87.5532C220.492 88.6161 218.437 89.1766 216.343 89.1766C214.249 89.1766 212.193 88.6161 210.389 87.5532C208.585 86.4903 207.098 84.9638 206.083 83.1323C205.513 82.0775 204.669 81.1964 203.639 80.5824C202.609 79.9684 201.432 79.6443 200.233 79.6443H158.982C157.85 79.6295 156.725 79.838 155.674 80.2577C154.622 80.6775 153.663 81.3003 152.852 82.0906C152.041 82.8809 151.394 83.8232 150.947 84.8637C150.5 85.9043 150.263 87.0226 150.248 88.1549V321.077C150.28 323.363 151.217 325.543 152.855 327.138C154.492 328.734 156.696 329.615 158.982 329.587H273.722C276.009 329.615 278.214 328.734 279.852 327.139C281.491 325.544 282.431 323.364 282.465 321.077V88.2014C282.433 85.9138 281.495 83.7323 279.855 82.1365C278.216 80.5407 276.01 79.661 273.722 79.6908Z" fill="#C5D5FF"/>
<path d="M286.492 85.6255C286.497 84.0564 286.192 82.5019 285.595 81.0508C284.998 79.5998 284.12 78.2809 283.012 77.1697C281.905 76.0585 280.589 75.1769 279.139 74.5753C277.69 73.9737 276.137 73.6641 274.568 73.6641H158.144C156.578 73.6628 155.028 73.9701 153.581 74.5684C152.135 75.1666 150.82 76.044 149.713 77.1506C148.605 78.2571 147.727 79.571 147.128 81.0172C146.528 82.4634 146.22 84.0135 146.22 85.579V330.378C146.22 333.538 147.475 336.569 149.71 338.803C151.944 341.038 154.975 342.293 158.135 342.293H274.568C277.728 342.293 280.76 341.038 282.996 338.804C285.232 336.57 286.489 333.539 286.492 330.378V85.6255ZM282.464 321.077C282.43 323.364 281.49 325.544 279.852 327.139C278.213 328.735 276.008 329.615 273.721 329.588H158.981C156.695 329.615 154.491 328.734 152.854 327.139C151.217 325.543 150.279 323.363 150.247 321.077V88.2019C150.262 87.0696 150.499 85.9512 150.946 84.9107C151.393 83.8702 152.04 82.9278 152.851 82.1375C153.662 81.3472 154.621 80.7244 155.673 80.3047C156.725 79.885 157.849 79.6765 158.981 79.6913H200.251C201.449 79.6909 202.624 80.015 203.653 80.6292C204.681 81.2433 205.524 82.1245 206.092 83.1792C207.107 85.0108 208.593 86.5373 210.397 87.6001C212.201 88.663 214.257 89.2236 216.351 89.2236C218.445 89.2236 220.501 88.663 222.305 87.6001C224.109 86.5373 225.596 85.0108 226.61 83.1792C227.184 82.1366 228.026 81.2671 229.051 80.6617C230.075 80.0563 231.243 79.7372 232.433 79.7378H273.73C274.863 79.723 275.987 79.9315 277.039 80.3512C278.09 80.7709 279.049 81.3937 279.86 82.184C280.671 82.9743 281.319 83.9167 281.766 84.9572C282.212 85.9977 282.45 87.1161 282.464 88.2484V321.077Z" fill="#263238"/>
<path opacity="0.2" d="M246.935 73.7012L169.595 342.312L200.307 342.284L274.783 73.7012H246.935Z" fill="white"/>
<path opacity="0.2" d="M235.399 73.7012L153.632 342.321L158.106 342.293L238.338 73.7012H235.399Z" fill="white"/>
<path d="M237.213 273.39C237.27 276.052 236.794 278.699 235.812 281.175C234.831 283.651 233.364 285.905 231.498 287.805C229.631 289.705 227.404 291.212 224.946 292.238C222.489 293.264 219.851 293.788 217.188 293.778C211.754 293.758 206.543 291.614 202.668 287.805C198.793 283.996 196.56 278.823 196.446 273.39C196.39 270.728 196.867 268.082 197.849 265.608C198.831 263.133 200.299 260.88 202.165 258.981C204.031 257.082 206.258 255.576 208.715 254.55C211.172 253.525 213.809 253.002 216.471 253.011C221.904 253.029 227.115 255.171 230.99 258.978C234.866 262.786 237.099 267.958 237.213 273.39Z" fill="white" stroke="#263238" stroke-linecap="round" stroke-linejoin="round"/>
<path d="M210.147 288.606C208.254 287.906 206.518 286.837 205.041 285.462C203.551 284.031 202.398 282.287 201.664 280.356C200.829 278.191 200.415 275.886 200.446 273.566C200.434 271.588 200.784 269.624 201.478 267.771C202.109 266.06 203.056 264.483 204.269 263.121C206.66 260.505 209.748 258.627 213.17 257.707C214.85 257.255 216.583 257.026 218.323 257.028C219.768 257.022 221.208 257.194 222.611 257.54C223.965 257.872 225.26 258.409 226.452 259.131C227.633 259.84 228.691 260.735 229.587 261.781C230.52 262.91 231.233 264.203 231.689 265.595C232.21 267.182 232.468 268.845 232.452 270.515C232.432 273.744 231.269 276.862 229.168 279.314C228.265 280.338 227.196 281.203 226.006 281.872C224.98 282.461 223.822 282.781 222.639 282.802C221.822 282.813 221.025 282.555 220.369 282.067C220.04 281.824 219.772 281.507 219.587 281.142C219.401 280.778 219.303 280.375 219.3 279.965C218.689 280.893 217.852 281.649 216.867 282.162C215.882 282.675 214.782 282.927 213.672 282.895C212.799 282.934 211.928 282.777 211.124 282.436C210.319 282.095 209.601 281.578 209.022 280.923C207.86 279.574 207.247 277.838 207.301 276.059C207.309 274.594 207.563 273.141 208.054 271.762C208.543 270.371 209.236 269.061 210.11 267.874C210.981 266.707 212.091 265.74 213.365 265.037C214.639 264.318 216.079 263.943 217.542 263.949C218.559 263.938 219.562 264.181 220.462 264.656C221.336 265.121 222.044 265.846 222.49 266.73L222.676 266.106C222.824 265.67 223.14 265.31 223.553 265.106C223.966 264.902 224.444 264.871 224.88 265.018C225.049 265.076 225.209 265.157 225.355 265.26C225.493 265.371 225.604 265.513 225.676 265.675C225.749 265.836 225.782 266.013 225.773 266.19C225.774 266.364 225.745 266.537 225.69 266.702L222.676 276.729C222.41 277.492 222.238 278.286 222.164 279.091C222.137 279.241 222.146 279.396 222.193 279.542C222.239 279.687 222.32 279.819 222.43 279.926C222.539 280.033 222.673 280.111 222.82 280.153C222.967 280.196 223.122 280.202 223.271 280.17C224.338 280.102 225.337 279.625 226.062 278.84C227.066 277.846 227.838 276.642 228.322 275.315C228.899 273.865 229.196 272.318 229.196 270.757C229.208 269.383 229.008 268.015 228.601 266.702C228.259 265.57 227.717 264.508 227.001 263.567C226.323 262.71 225.501 261.977 224.573 261.4C223.648 260.816 222.638 260.38 221.578 260.107C220.492 259.822 219.372 259.678 218.249 259.679C216.823 259.681 215.405 259.882 214.035 260.275C212.624 260.674 211.28 261.279 210.045 262.07C208.8 262.855 207.672 263.814 206.696 264.916C205.691 266.077 204.909 267.414 204.39 268.86C203.805 270.434 203.512 272.101 203.525 273.78C203.494 275.769 203.854 277.744 204.585 279.593C205.215 281.194 206.208 282.627 207.487 283.779C208.722 284.851 210.149 285.681 211.691 286.225C213.319 286.801 215.034 287.09 216.76 287.081C218.605 287.081 220.44 286.802 222.202 286.253C222.378 286.19 222.563 286.158 222.75 286.16C222.925 286.157 223.098 286.192 223.258 286.26C223.418 286.329 223.562 286.431 223.68 286.56C223.799 286.684 223.892 286.829 223.955 286.989C224.017 287.148 224.047 287.319 224.043 287.49C224.066 287.761 223.989 288.03 223.829 288.249C223.668 288.468 223.434 288.621 223.169 288.681C220.974 289.352 218.693 289.703 216.398 289.722C214.265 289.72 212.149 289.342 210.147 288.606ZM217.83 278.961C218.75 278.301 219.431 277.361 219.774 276.282L221.718 269.446L221.588 269.167C221.467 268.943 221.32 268.733 221.151 268.543C220.917 268.275 220.662 268.026 220.388 267.799C220.039 267.521 219.646 267.304 219.225 267.158C218.124 266.773 216.919 266.816 215.849 267.278C215.262 267.527 214.724 267.876 214.258 268.311C213.774 268.762 213.344 269.268 212.975 269.818C212.605 270.39 212.294 270.998 212.045 271.631C211.783 272.266 211.581 272.923 211.44 273.594C211.3 274.233 211.228 274.884 211.226 275.538C211.218 275.958 211.243 276.378 211.301 276.794C211.343 277.164 211.424 277.528 211.542 277.882C211.644 278.211 211.791 278.524 211.979 278.812C212.148 279.072 212.362 279.299 212.612 279.482C212.878 279.675 213.178 279.817 213.496 279.9C213.867 280.009 214.253 280.059 214.64 280.049C215.803 280.063 216.939 279.69 217.867 278.989L217.83 278.961Z" fill="#C5D5FF" stroke="#263238" stroke-linecap="round" stroke-linejoin="round"/>
<path d="M236.759 203.509C236.815 206.17 236.338 208.816 235.356 211.291C234.374 213.765 232.906 216.019 231.04 217.917C229.174 219.816 226.947 221.323 224.49 222.348C222.033 223.373 219.396 223.897 216.734 223.888C211.301 223.869 206.09 221.728 202.215 217.92C198.339 214.112 196.106 208.94 195.992 203.509C195.934 200.846 196.409 198.198 197.39 195.722C198.371 193.246 199.838 190.991 201.705 189.091C203.571 187.191 205.799 185.683 208.257 184.658C210.716 183.633 213.354 183.11 216.018 183.12C221.452 183.141 226.662 185.285 230.537 189.094C234.413 192.903 236.645 198.076 236.759 203.509Z" fill="white" stroke="#263238" stroke-linecap="round" stroke-linejoin="round"/>
<path d="M229.168 201.65C222.778 197.464 210.249 197.464 204.157 201.65C203.043 201.859 202.041 202.461 201.334 203.348C200.627 204.234 200.262 205.345 200.306 206.477C200.399 209.184 211.645 209.184 211.551 206.477C211.497 205.346 211.064 204.265 210.324 203.408C214.541 202.496 218.905 202.496 223.122 203.408C222.436 204.28 222.08 205.368 222.118 206.477C222.211 209.184 233.456 209.184 233.354 206.477C233.301 205.319 232.859 204.213 232.099 203.337C231.34 202.461 230.307 201.866 229.168 201.65Z" fill="#C5D5FF" stroke="#263238" stroke-linecap="round" stroke-linejoin="round"/>
<path d="M236.758 135.629C236.869 140.642 234.135 145.125 229.745 148.111V160.286L221.011 151.543C219.599 151.796 218.167 151.92 216.732 151.915C205.478 151.915 196.186 144.623 195.99 135.629C195.795 126.634 204.752 119.352 216.016 119.352C227.28 119.352 236.609 126.681 236.758 135.629Z" fill="white" stroke="#263238" stroke-linecap="round" stroke-linejoin="round"/>
<path d="M207.692 135.629C207.694 136.152 207.541 136.664 207.252 137.099C206.962 137.535 206.551 137.875 206.068 138.076C205.586 138.278 205.054 138.331 204.541 138.231C204.028 138.13 203.557 137.879 203.186 137.51C202.816 137.141 202.563 136.67 202.461 136.157C202.358 135.645 202.41 135.113 202.609 134.63C202.809 134.147 203.148 133.734 203.582 133.443C204.017 133.152 204.528 132.997 205.051 132.997C205.75 132.997 206.42 133.274 206.915 133.767C207.41 134.261 207.69 134.93 207.692 135.629Z" fill="#C5D5FF" stroke="#263238" stroke-linecap="round" stroke-linejoin="round"/>
<path d="M218.992 135.629C218.994 136.152 218.841 136.664 218.551 137.099C218.262 137.535 217.85 137.875 217.368 138.076C216.885 138.278 216.354 138.331 215.841 138.231C215.328 138.13 214.856 137.879 214.486 137.51C214.116 137.141 213.863 136.67 213.76 136.157C213.658 135.645 213.71 135.113 213.909 134.63C214.109 134.147 214.447 133.734 214.882 133.443C215.317 133.152 215.828 132.997 216.351 132.997C217.049 132.997 217.72 133.274 218.215 133.767C218.71 134.261 218.99 134.93 218.992 135.629Z" fill="#C5D5FF" stroke="#263238" stroke-linecap="round" stroke-linejoin="round"/>
<path d="M230.294 135.629C230.296 136.152 230.142 136.664 229.853 137.099C229.564 137.535 229.152 137.875 228.67 138.076C228.187 138.278 227.656 138.331 227.143 138.231C226.63 138.13 226.158 137.879 225.788 137.51C225.417 137.141 225.165 136.67 225.062 136.157C224.96 135.645 225.011 135.113 225.211 134.63C225.411 134.147 225.749 133.734 226.184 133.443C226.618 133.152 227.129 132.997 227.652 132.997C228.351 132.997 229.022 133.274 229.517 133.767C230.012 134.261 230.291 134.93 230.294 135.629Z" fill="#C5D5FF" stroke="#263238" stroke-linecap="round" stroke-linejoin="round"/>
<path d="M102.485 172.747C102.155 173.362 101.679 173.885 101.099 174.273C96.8084 177.696 92.4183 180.979 87.9289 184.123C86.2825 185.276 84.5711 186.467 82.9806 187.76C73.4189 194.159 79.2601 195.721 73.4189 209.264C72.0423 212.501 72.2935 228.359 72.2935 228.359H71.8191C70.6995 227.254 69.5095 226.223 68.2567 225.271C68.0837 225.155 67.9035 225.049 67.7173 224.955C67.5425 224.865 67.3539 224.805 67.1592 224.778C66.2291 224.723 62.6853 225.151 59.1043 224.918L58.1742 224.844C57.6533 224.788 57.1417 224.723 56.6302 224.63C56.1186 224.537 55.6256 224.434 55.1513 224.304C51.7529 223.214 48.4206 221.929 45.171 220.453L43.5526 219.756L42.7527 219.412L42.0272 219.095L41.5063 218.872L41.0041 218.658C40.1577 218.305 39.3671 217.979 38.6416 217.728C38.309 217.609 37.9706 217.506 37.6277 217.421C37.6277 218.184 37.5068 218.965 37.4045 219.728C36.958 223.365 35.9628 226.722 34.1863 227.169C34.1497 227.178 34.1113 227.178 34.0746 227.169C33.9182 227.198 33.7595 227.214 33.6003 227.215H33.4608C33.0672 227.207 32.6776 227.135 32.3074 227.001C30.6951 226.313 29.3775 225.078 28.5869 223.514C28.2336 222.854 28.0363 222.122 28.0102 221.374C28.0102 218.668 27.2568 202.697 27.2568 198.047C27.2568 193.396 28.187 185.258 30.503 182.235C31.4081 180.953 32.5512 179.857 33.87 179.007C35.567 177.592 37.5134 176.507 39.6089 175.807C42.083 174.998 47.6173 172.933 51.4773 171.473L45.6454 173.724C47.1243 176.254 50.296 180.235 56.0163 180.746C61.3924 181.202 64.7222 176.338 66.4244 172.785C66.5732 172.84 75.9303 171.064 78.0974 171.166C85.1571 171.473 90.9146 167.65 93.5189 166.134C94.3045 165.665 95.186 165.379 96.0975 165.298C97.009 165.217 97.927 165.343 98.783 165.667C99.6389 165.991 100.411 166.504 101.04 167.168C101.67 167.832 102.142 168.629 102.42 169.501V169.585C102.827 170.596 102.85 171.721 102.485 172.747Z" fill="#2D9CDB" stroke="#263238" stroke-linecap="round" stroke-linejoin="round"/>
<path d="M66.3224 172.842L65.8945 172.693L66.3224 172.842Z" fill="white" stroke="#263238" stroke-linecap="round" stroke-linejoin="round"/>
<path d="M74.2564 232.453C74.2609 232.49 74.2609 232.528 74.2564 232.565C74.2186 232.655 74.1612 232.735 74.0882 232.8C74.0153 232.864 73.9288 232.912 73.835 232.939C73.7413 232.965 73.6427 232.971 73.5466 232.954C73.4505 232.938 73.3593 232.9 73.2798 232.844C72.8519 232.602 72.1915 231.049 72.1915 231.049L71.4567 230.286L70.9731 229.774C71.0475 229.96 71.6335 231.384 71.3265 232.044C71.3109 232.089 71.2855 232.13 71.2521 232.165C71.0466 232.439 70.7798 232.662 70.473 232.816C70.1662 232.969 69.8279 233.049 69.4849 233.048C69.0849 233.048 67.913 233.188 66.8898 233.253H66.7782C66.4684 233.27 66.1579 233.27 65.8481 233.253C65.0223 233.147 64.2256 232.878 63.5042 232.462C61.8679 232.222 60.2558 231.839 58.6861 231.318L58.4071 231.17L58.156 231.021C57.9908 230.921 57.8379 230.802 57.7002 230.667C57.1334 230.195 56.652 229.629 56.2771 228.993C56.2771 228.993 52.5008 228.835 47.4316 228.444C45.5714 228.305 43.5623 228.128 41.4788 227.923C38.2792 227.598 35.6376 227.617 33.5635 227.328H33.4147C33.0054 227.272 32.624 227.198 32.2613 227.114C31.3761 226.941 30.5575 226.522 29.8994 225.905C29.2414 225.288 28.7705 224.499 28.5408 223.626C28.419 223.213 28.3197 222.794 28.2432 222.371L29.8616 219.58C30.7051 218.904 31.6458 218.358 32.652 217.962C34.213 217.309 35.9367 217.15 37.5909 217.506C37.9338 217.591 38.2722 217.694 38.6047 217.813C39.3302 218.092 40.1209 218.418 40.9673 218.743L41.4788 218.957L41.9997 219.18L42.7252 219.497C46.8643 221.208 51.8032 223.412 55.1052 224.342C56.0969 224.602 57.1077 224.783 58.1281 224.882L59.0582 224.956C62.6392 225.189 66.1736 224.761 67.1131 224.817C68.0525 224.873 70.3499 227.058 71.8195 228.407C72.2194 228.779 72.5729 229.086 72.8147 229.272L72.9263 229.365L73.01 229.44C73.5428 229.986 73.9159 230.668 74.089 231.411C74.1622 231.66 74.212 231.916 74.2378 232.174C74.2547 232.266 74.2609 232.36 74.2564 232.453Z" fill="white" stroke="#263238" stroke-linecap="round" stroke-linejoin="round"/>
<path d="M74.2563 232.453C74.2608 232.49 74.2608 232.527 74.2563 232.565C74.2176 232.654 74.1594 232.733 74.0861 232.797C74.0127 232.86 73.9261 232.907 73.8324 232.933C73.7388 232.959 73.6405 232.963 73.5449 232.946C73.4492 232.929 73.3586 232.891 73.2796 232.834C72.8197 232.3 72.4519 231.694 72.1914 231.039L71.4566 230.286L70.9729 229.783C71.038 229.932 71.6426 231.383 71.3357 232.053C71.3201 232.098 71.2947 232.14 71.2613 232.174C71.1582 232.311 71.0396 232.436 70.9078 232.546C70.5068 232.868 70.0085 233.045 69.494 233.048C69.0848 233.048 67.9221 233.178 66.9083 233.253H66.7781C66.4683 233.27 66.1578 233.27 65.848 233.253C65.0271 233.143 64.2348 232.878 63.5133 232.472C61.8771 232.226 60.2651 231.841 58.6953 231.318L58.4256 231.188L58.1744 231.039C58.0136 230.933 57.8612 230.815 57.7187 230.686C57.1435 230.209 56.6557 229.636 56.277 228.993C56.277 228.993 52.6123 228.835 47.6454 228.453C45.7852 228.314 43.6366 228.128 41.4787 227.914C38.5395 227.626 36.1119 227.542 34.1493 227.235L33.5447 227.123L32.8471 226.965C32.6863 225.825 32.8044 224.664 33.1913 223.58C33.5518 222.665 34.111 221.842 34.8284 221.169C35.5458 220.497 36.4035 219.992 37.3396 219.692C38.5014 219.264 39.6918 218.919 40.902 218.659L41.4043 218.873L41.9252 219.096L42.6506 219.413C46.8641 221.226 51.7473 223.421 55.0585 224.324C56.0495 224.585 57.0607 224.762 58.0814 224.854L59.0115 224.928C62.5925 225.17 66.127 224.742 67.0664 224.798C68.0058 224.854 70.2939 227.03 71.717 228.379C72.0399 228.687 72.3783 228.979 72.7309 229.253L72.8425 229.337L72.9262 229.411C73.4691 229.95 73.8439 230.635 74.0051 231.383C74.0783 231.632 74.1282 231.888 74.154 232.146C74.2016 232.243 74.236 232.347 74.2563 232.453Z" fill="white" stroke="#263238" stroke-linecap="round" stroke-linejoin="round"/>
<path d="M63.1221 229.978C63.1221 229.978 65.2335 231.075 66.0706 231.456C66.9077 231.838 66.8333 233.372 66.8333 233.372" fill="white"/>
<path d="M63.1221 229.978C63.1221 229.978 65.2335 231.075 66.0706 231.456C66.9077 231.838 66.8333 233.372 66.8333 233.372" stroke="#263238" stroke-linecap="round" stroke-linejoin="round"/>
<path d="M65.3838 228.49C66.7121 229.438 67.9911 230.453 69.2159 231.532C69.3948 231.742 69.5114 231.998 69.5525 232.271C69.5936 232.543 69.5576 232.822 69.4484 233.076" fill="white"/>
<path d="M65.3838 228.49C66.7121 229.438 67.9911 230.453 69.2159 231.532C69.3948 231.742 69.5114 231.998 69.5525 232.271C69.5936 232.543 69.5576 232.822 69.4484 233.076" stroke="#263238" stroke-linecap="round" stroke-linejoin="round"/>
<path d="M70.945 229.765C69.8445 228.586 68.6801 227.468 67.457 226.417L70.945 229.765Z" fill="white"/>
<path d="M70.945 229.765C69.8445 228.586 68.6801 227.468 67.457 226.417" stroke="#263238" stroke-linecap="round" stroke-linejoin="round"/>
<path d="M66.3126 172.86C64.6291 176.403 61.29 181.231 55.9139 180.812C50.2215 180.329 47.0219 176.32 45.543 173.78C47.5892 172.999 49.6634 172.199 51.3655 171.53C51.3655 169.8 51.3097 167.725 51.1237 165.67C51.1237 165.223 51.0307 164.74 50.9842 164.321C50.9377 163.903 50.8819 163.605 50.8261 163.261H61.6434C61.6434 163.261 61.5783 163.689 61.4946 164.405C61.4295 165.047 61.3458 165.902 61.2807 166.87C61.197 168.153 61.1412 169.66 61.1784 171.083C61.6992 171.26 62.2294 171.455 62.7596 171.66L63.7827 172.013C64.192 172.162 64.5919 172.292 65.0198 172.432L65.9499 172.711C66.0738 172.753 66.195 172.802 66.3126 172.86Z" fill="white" stroke="#263238" stroke-linecap="round" stroke-linejoin="round"/>
<path d="M50.9854 164.284C50.9854 164.284 53.0037 169.53 55.9336 170.423C58.8635 171.316 61.5144 164.405 61.5144 164.405C61.5144 164.405 57.3846 168.814 55.8499 168.126C54.3152 167.437 51.004 164.321 51.004 164.321" fill="#263238"/>
<path d="M49.2457 135.31C46.5123 137.771 44.3449 140.795 42.893 144.174C41.5629 146.964 40.4375 150.173 41.4606 153.094C42.0728 154.544 42.939 155.873 44.0184 157.019C46.0275 159.428 48.8458 166.153 50.8548 168.562C50.9851 164.274 47.3948 157.345 47.7761 153.745C48.238 150.964 49.1524 148.278 50.4828 145.792C51.8359 142.533 53.6054 139.463 55.7473 136.659C56.9658 135.189 60.8816 132.575 56.9286 132.259C54.3056 132.045 51.2269 133.682 49.2457 135.31Z" fill="#263238" stroke="#263238" stroke-linecap="round" stroke-linejoin="round"/>
<path d="M46.7157 149.932C46.7157 149.932 45.3298 147.244 43.8695 149.793C42.8185 151.653 44.3346 154.583 44.9857 155.671C45.2017 155.981 45.4943 156.23 45.835 156.393C46.1757 156.556 46.5528 156.628 46.9296 156.601L46.7157 149.932Z" fill="white" stroke="#263238" stroke-linecap="round" stroke-linejoin="round"/>
<path d="M64.927 159.643C64.0382 161.399 62.8802 163.006 61.4949 164.405L60.6577 165.27C58.9277 166.981 57.0582 168.339 55.8304 168.06C54.7608 167.846 53.3656 166.749 51.9983 165.344C51.6541 165 51.3193 164.628 50.9844 164.256C49.4957 162.627 48.2177 160.818 47.1802 158.871C46.892 158.14 46.7073 157.373 46.6315 156.592C46.3968 154.262 46.316 151.919 46.3896 149.579C46.3896 148.751 46.3896 148.09 46.3896 147.718C46.3896 146.1 52.454 140.473 52.454 140.473C52.6175 140.413 52.7931 140.394 52.9656 140.417C54.0086 140.607 55.0139 140.965 55.942 141.477C59.616 143.263 64.741 146.807 65.113 148.155C65.6804 150.118 65.4665 157.894 64.927 159.643Z" fill="white" stroke="#263238" stroke-linecap="round" stroke-linejoin="round"/>
<path d="M52.8811 152.182C52.8811 152.833 52.6393 153.364 52.3696 153.364C52.0998 153.364 51.8301 152.852 51.8301 152.182C51.8301 151.513 52.0719 150.982 52.3696 150.982C52.6672 150.982 52.8811 151.531 52.8811 152.182Z" fill="#263238"/>
<path d="M59.81 150.992C60.1076 150.992 60.3495 151.522 60.3495 152.183C60.3495 152.843 60.1076 153.364 59.81 153.364C59.5123 153.364 59.2705 152.834 59.2705 152.183C59.2705 151.532 59.5123 150.992 59.81 150.992Z" fill="#263238"/>
<path d="M49.4229 149.253C49.4229 149.253 50.353 147.393 53.6456 147.96" stroke="#263238" stroke-linecap="round" stroke-linejoin="round"/>
<path d="M62.8722 149.253C62.8722 149.253 61.9421 147.393 58.6494 147.96" stroke="#263238" stroke-linecap="round" stroke-linejoin="round"/>
<path d="M56.7783 156.731C57.1128 156.71 57.4318 156.582 57.688 156.366C57.9443 156.15 58.1243 155.857 58.2014 155.531C58.2014 155.531 56.397 152.74 56.9457 150.006" stroke="#263238" stroke-linecap="round" stroke-linejoin="round"/>
<path d="M45.5434 143.422C44.794 144.438 44.2274 145.578 43.8691 146.789" stroke="white" stroke-linecap="round" stroke-linejoin="round"/>
<path d="M53.3183 135.981C53.3183 135.981 52.2858 137.693 47.7375 141.181C47.4444 141.393 47.1648 141.622 46.9004 141.869" stroke="white" stroke-linecap="round" stroke-linejoin="round"/>
<path d="M38.7343 190.514C38.1142 199.356 37.4941 208.205 36.874 217.059V216.38" fill="#263238"/>
<path d="M38.7343 190.514C38.1142 199.356 37.4941 208.205 36.874 217.059V216.38" stroke="#263238" stroke-linecap="round" stroke-linejoin="round"/>
<path d="M97.4912 161.316C98.3319 160.988 99.2404 160.87 100.137 160.974C101.034 161.078 101.891 161.4 102.635 161.912C104.118 162.962 105.198 164.488 105.695 166.237C106.288 167.978 106.228 169.875 105.527 171.576C105.165 172.414 104.581 173.138 103.839 173.67C103.097 174.203 102.224 174.524 101.314 174.599C99.9572 174.581 98.6461 174.106 97.5935 173.25C94.1148 170.646 92.3755 163.521 97.4912 161.316Z" fill="white" stroke="#263238" stroke-linecap="round" stroke-linejoin="round"/>
<path d="M105.193 131.618C105.193 131.73 105.193 132.464 105.258 132.595C105.583 134.027 106.272 137.608 104.532 138.333C105.193 140.687 106.811 156.062 106.597 163.903C106.541 166.247 106.132 169.028 104.03 170.032C100.486 171.716 97.1191 167.614 97.5191 164.405C98.1423 160.024 97.9283 155.559 98.4492 151.132C99.0166 146.537 100.058 141.831 98.9143 137.338C98.6352 137.031 96.8494 133.488 96.2634 132.511C96.0005 132.094 95.7941 131.643 95.6495 131.172C95.4205 129.566 95.3086 127.947 95.3147 126.326C95.8449 125.321 96.5331 126.251 96.8959 126.912C97.1917 127.717 97.2937 128.58 97.1935 129.432C97.1591 129.641 97.1883 129.855 97.2772 130.046C97.3553 130.156 97.461 130.243 97.5835 130.298C97.706 130.354 97.841 130.376 97.9748 130.362C99.1189 130.195 99.0724 129.237 99.0538 128.502C99.0538 126.037 99.0538 123.572 99.0538 121.126C99.0538 120.717 99.184 119.61 99.5747 119.573C99.9653 119.536 100.551 119.852 100.607 121.163C100.672 122.642 100.672 127.2 100.672 127.2C100.709 127.237 100.755 127.265 100.805 127.279C100.856 127.294 100.909 127.296 100.961 127.284C101.054 127.284 101.091 127.116 101.128 127.023C101.677 124.735 102.235 122.447 102.784 120.159C102.849 119.889 103.249 119.331 103.537 119.331C104.225 119.331 104.244 120.131 104.281 120.363C104.523 121.591 102.802 126.651 102.514 127.804C102.514 128.009 102.514 128.316 102.728 128.26L105.425 122.819C105.55 122.501 105.747 122.216 106 121.987C106.254 121.758 106.557 121.591 106.885 121.498C106.931 121.484 106.98 121.484 107.025 121.498C107.073 121.526 107.112 121.569 107.137 121.619C107.397 122.084 107.137 122.726 106.988 123.238C106.839 123.749 104.821 127.507 104.104 129.023C104.002 129.237 103.835 129.721 104.039 129.953C104.244 130.186 104.616 129.739 104.765 129.432C105.221 128.502 105.648 127.628 106.067 126.716C106.197 126.446 106.392 126.065 106.699 126.13C108.513 126.521 105.937 130.325 105.193 131.618Z" fill="white" stroke="#263238" stroke-linecap="round" stroke-linejoin="round"/>
<path d="M100.188 130.818C101.125 131.56 101.938 132.445 102.597 133.441C102.923 133.942 103.14 134.505 103.236 135.094C103.332 135.683 103.305 136.286 103.156 136.864C103.11 137.015 103.051 137.161 102.979 137.301" fill="white"/>
<path d="M100.188 130.818C101.125 131.56 101.938 132.445 102.597 133.441C102.923 133.942 103.14 134.505 103.236 135.094C103.332 135.683 103.305 136.286 103.156 136.864C103.11 137.015 103.051 137.161 102.979 137.301" stroke="#263238" stroke-linecap="round" stroke-linejoin="round"/>
<path d="M73.9863 188.923C74.9706 190.908 75.6331 193.036 75.9489 195.229C76.2186 197.424 76.3023 199.145 74.8048 205.312" stroke="#263238" stroke-linecap="round" stroke-linejoin="round"/>
<path d="M52.9929 139.077C52.8655 139.458 52.8336 139.863 52.8999 140.259C53.0763 140.756 53.4009 141.188 53.83 141.496C56.8029 144.101 60.1282 146.274 63.7079 147.951C64.1569 148.068 64.546 148.348 64.799 148.737C65.0519 149.126 65.1504 149.595 65.0752 150.053V157.243C65.1209 157.984 65.0487 158.728 64.8613 159.447C64.3404 161.121 63.187 162.47 62.3499 164.014C61.4989 165.478 61.0677 167.148 61.1036 168.841C60.871 167.065 67.0843 163.623 68.7678 156.629C69.0003 155.643 73.837 149.774 70.935 142.882C68.1446 136.268 63.7544 133.422 62.2755 133.078C61.2717 132.785 60.2123 132.734 59.1853 132.932C58.1582 133.129 57.1929 133.568 56.3692 134.213C54.7439 135.423 53.5583 137.131 52.9929 139.077Z" fill="#263238" stroke="#263238" stroke-linecap="round" stroke-linejoin="round"/>
<path d="M59.0855 159.234C58.5553 159.346 58.0159 159.448 57.4764 159.513C55.6162 159.746 53.6257 159.458 52.4072 158.1C52.5002 159.318 53.3374 163.922 55.8394 164.052C58.3414 164.183 59.0855 159.234 59.0855 159.234Z" stroke="#263238" stroke-linecap="round" stroke-linejoin="round"/>
<path d="M56.668 136.269C57.7408 138.704 59.4501 140.805 61.6162 142.352C63.1881 143.477 64.9833 144.286 66.425 145.57C68.2852 147.272 69.5037 149.969 68.7875 152.416" stroke="white" stroke-linecap="round" stroke-linejoin="round"/>
<path d="M76.1058 173.847C74.3138 175.285 73.1338 177.349 72.8038 179.623C72.4831 181.588 72.7249 183.603 73.5014 185.436" stroke="#263238" stroke-linecap="round" stroke-linejoin="round"/>
<path d="M41.4597 189.193C41.3109 191.63 39.7948 193.742 38.3252 195.704L41.4597 189.193Z" fill="#263238"/>
<path d="M41.4597 189.193C41.3109 191.63 39.7948 193.742 38.3252 195.704" stroke="#263238" stroke-linecap="round" stroke-linejoin="round"/>
<path d="M37.832 207.823C38.5708 209.06 39.5596 210.129 40.7352 210.962C41.9108 211.795 43.2473 212.373 44.6591 212.66" stroke="#263238" stroke-linecap="round" stroke-linejoin="round"/>
<path d="M73.4184 209.274C73.4184 209.274 70.9164 212.995 62.415 213.776" stroke="#263238" stroke-linecap="round" stroke-linejoin="round"/>
<path d="M322.462 176.674C322.462 176.674 290.047 186.719 283.945 178.785L284.773 138.315H289.693L295.479 166.824L322.043 161.959C322.043 161.959 325.447 172.507 322.462 176.674Z" fill="white"/>
<path d="M308.808 178.087C306.95 178.826 305.175 179.761 303.516 180.877C305.711 181.575 308.055 180.691 310.25 179.993C313.149 179.103 316.104 178.407 319.095 177.91C319.235 177.082 318.165 175.194 317.747 174.459C316.984 173.176 316.816 173.064 315.533 173.697C313.198 174.868 311.208 176.905 308.808 178.087Z" fill="#2D9CDB"/>
<path d="M322.462 176.674C322.462 176.674 290.047 186.719 283.945 178.785L284.773 138.315H289.693L295.479 166.824L322.043 161.959C322.043 161.959 325.447 172.507 322.462 176.674Z" stroke="#263238" stroke-linecap="round" stroke-linejoin="round"/>
<path d="M319.281 177.735L324.973 212.782C324.824 235.496 335.66 232.082 343.185 232.017C351.881 231.942 365.08 223.32 358.606 209.899L361.099 161.318L345.947 160.165C340.952 159.774 320.49 160.416 318.862 163.03C314.639 169.81 319.281 177.735 319.281 177.735Z" fill="white"/>
<path d="M320.175 180.629C323.556 193.418 331.663 204.447 342.861 211.49C341.648 211.299 340.464 210.958 339.336 210.477C338.2 209.987 336.927 209.918 335.745 210.281C335.46 210.384 335.197 210.542 334.973 210.747C334.749 210.951 334.567 211.198 334.439 211.473C334.31 211.747 334.237 212.045 334.223 212.348C334.209 212.651 334.256 212.954 334.359 213.239C334.631 213.675 335 214.041 335.438 214.309C337.285 215.607 339.304 216.64 341.438 217.378C339.567 217.186 337.677 217.331 335.857 217.806C335.522 219.424 337.326 220.596 338.75 221.387C341.02 222.726 342.964 224.552 344.442 226.735C339.448 226.746 334.458 227.032 329.495 227.591C328.84 227.738 328.156 227.672 327.542 227.405C326.898 226.926 326.464 226.216 326.332 225.424C325.226 221.554 324.583 217.567 324.416 213.546C324.323 211.286 324.416 209.007 324.119 206.765C323.879 204.998 323.55 203.244 323.133 201.51C321.688 194.801 320.581 188.039 319.812 181.224C319.468 181.252 320.175 180.629 320.175 180.629Z" fill="#2D9CDB"/>
<path d="M358.598 177.838C357.343 177.435 356.174 176.805 355.147 175.978C355.436 177.373 357.519 179.782 358.738 180.526C358.989 180.684 359.352 180.814 359.575 180.6C359.798 180.386 359.947 179.838 360.17 179.67L358.598 177.838Z" fill="#2D9CDB"/>
<path d="M319.281 177.735L324.973 212.782C324.824 235.496 335.66 232.082 343.185 232.017C351.881 231.942 365.08 223.32 358.606 209.899L361.099 161.318L345.947 160.165C340.952 159.774 320.49 160.416 318.862 163.03C314.639 169.81 319.281 177.735 319.281 177.735Z" stroke="#263238" stroke-linecap="round" stroke-linejoin="round"/>
<path d="M330.359 159.449C328.728 162.434 327.944 165.807 328.089 169.206C328.087 169.502 328.144 169.796 328.257 170.071C328.675 170.898 329.819 170.898 330.74 171.001C334.321 171.457 336.544 175.233 339.921 176.498C340.039 176.571 340.171 176.619 340.308 176.64C340.446 176.661 340.586 176.654 340.721 176.619C340.855 176.584 340.982 176.522 341.092 176.438C341.202 176.353 341.294 176.247 341.362 176.126C342.832 174.266 343.353 171.652 345.362 170.452C346.236 169.931 347.343 169.717 347.948 168.899C348.636 167.969 348.329 166.629 347.994 165.494C347.445 163.634 346.831 161.7 345.408 160.407C343.892 159.223 342.03 158.57 340.107 158.546C337.292 158.316 334.459 158.581 331.735 159.328C331.773 159.681 330.359 159.449 330.359 159.449Z" fill="#2D9CDB" stroke="#263238" stroke-linecap="round" stroke-linejoin="round"/>
<path d="M375.375 183.232C373.102 179.922 371.427 176.239 370.427 172.35C370.063 170.401 369.495 168.496 368.734 166.666C368.016 165.253 366.98 164.026 365.706 163.081C364.432 162.137 362.957 161.502 361.396 161.225C360.729 161.079 360.036 161.111 359.387 161.318C358.038 161.83 357.443 163.383 357.173 164.797C356.589 167.834 356.762 170.967 357.675 173.921C358.298 175.93 365.786 190.496 370.697 196.142C370.269 193.296 373.543 183.781 375.375 183.232Z" fill="white"/>
<path d="M360.689 180.377L365.284 189.036C365.944 190.273 366.688 191.594 367.972 192.133C367.164 189.272 366.705 186.324 366.605 183.353C366.655 181.86 366.483 180.368 366.093 178.926C365.907 179.084 365.712 178.414 365.712 178.414C365.507 178.795 364.967 178.805 364.549 178.721C361.545 178.088 359.48 175.41 357.694 172.917C357.462 173.752 357.425 174.629 357.586 175.481C357.747 176.333 358.102 177.136 358.624 177.828C358.624 177.828 360.54 180.088 360.689 180.377Z" fill="#2D9CDB"/>
<path d="M375.375 183.232C373.102 179.922 371.427 176.239 370.427 172.35C370.063 170.401 369.495 168.496 368.734 166.666C368.016 165.253 366.98 164.026 365.706 163.081C364.432 162.137 362.957 161.502 361.396 161.225C360.729 161.079 360.036 161.111 359.387 161.318C358.038 161.83 357.443 163.383 357.173 164.797C356.589 167.834 356.762 170.967 357.675 173.921C358.298 175.93 365.786 190.496 370.697 196.142C370.269 193.296 373.543 183.781 375.375 183.232Z" stroke="#263238" stroke-linecap="round" stroke-linejoin="round"/>
<path d="M368.921 193.649C363.917 184.059 366.336 161.959 366.187 158.406L372.791 158.053C373.451 158.053 376.511 176.897 378.595 184.719C380.455 191.844 378.669 199.053 375.376 199.053C372.642 199.053 369.972 195.667 368.921 193.649Z" fill="white" stroke="#263238" stroke-linecap="round" stroke-linejoin="round"/>
<path d="M309.292 168.749C313.943 161.959 323.067 161.42 323.067 161.42" stroke="#263238" stroke-linecap="round" stroke-linejoin="round"/>
<path d="M291.35 172.554C292.756 171.262 293.859 169.673 294.577 167.903L291.35 172.554Z" fill="white"/>
<path d="M291.35 172.554C292.756 171.262 293.859 169.673 294.577 167.903" stroke="#263238" stroke-linecap="round" stroke-linejoin="round"/>
<path d="M325.903 204.643C328.554 208.986 345.724 213.628 352.57 212.632" stroke="#263238" stroke-linecap="round" stroke-linejoin="round"/>
<path d="M330.758 216.901C335.704 217.752 340.773 217.559 345.64 216.334" stroke="#263238" stroke-linecap="round" stroke-linejoin="round"/>
<path d="M353.537 174.758L356.811 179.195C357.258 179.799 357.881 180.478 358.616 180.311" stroke="#263238" stroke-linecap="round" stroke-linejoin="round"/>
<path d="M377.869 343.055C377.581 344.236 377.488 345.64 378.334 346.524C379.18 347.408 380.408 347.389 381.552 347.37L385.487 347.296C387.004 347.372 388.52 347.134 389.942 346.598C390.653 346.322 391.262 345.834 391.686 345.2C392.11 344.566 392.329 343.817 392.314 343.055C392.217 342.465 392.029 341.894 391.756 341.362C391.402 340.599 391.049 339.827 390.705 339.064C386.361 329.493 379.729 335.316 377.869 343.055Z" fill="white" stroke="#263238" stroke-linecap="round" stroke-linejoin="round"/>
<path d="M372.324 331.772C372.462 336.165 372.094 340.56 371.227 344.868C371.022 345.845 371.227 347.324 372.157 347.231C372.522 347.175 372.853 346.986 373.087 346.701C376.506 343.329 378.951 339.097 380.165 334.451C380.348 333.968 380.433 333.454 380.415 332.939C380.398 332.423 380.278 331.916 380.063 331.447C379.808 331.07 379.494 330.737 379.133 330.461C375.98 327.94 372.036 325.438 372.324 331.772Z" fill="white" stroke="#263238" stroke-linecap="round" stroke-linejoin="round"/>
<path d="M361.527 219.349C361.527 219.349 366.429 227.869 367.48 229.85C368.531 231.831 390.733 261.009 394.993 282.253C395.793 286.29 379.413 331.438 379.413 331.438L375.693 329.336C375.693 329.336 378.279 288.159 377.646 284.736C377.014 281.314 360.671 256.051 360.671 256.051C360.671 256.051 351.547 249.345 347.789 241.551L361.527 219.349Z" fill="#263238"/>
<path d="M362.057 240.694C362.057 240.694 359.266 246.907 359.266 247.8C359.266 248.693 374.613 297.189 379.125 308.407C381.977 315.631 384.491 323.022 386.668 330.581C386.668 330.581 388.416 332.878 387.096 335.232C385.775 337.585 380.52 339.129 379.441 337.027C378.362 334.925 367.73 324.005 363.247 313.141C358.764 302.277 352.458 284.121 348.868 277.359C344.165 268.719 339.99 259.801 336.367 250.655C331.856 239.112 327.242 226.667 327.242 226.667C329.116 226.836 330.998 226.889 332.879 226.826C337.306 226.675 341.69 225.898 345.9 224.519C355.704 221.226 359.945 214.92 359.945 214.92C359.945 214.92 362.373 221.496 363.005 222.77L362.057 240.694Z" fill="#263238"/>
<path d="M393.355 286.409C392.395 288.055 391.102 289.484 389.561 290.604" stroke="white" stroke-linecap="round" stroke-linejoin="round"/>
<path d="M394.557 283.703C394.417 284.156 394.249 284.601 394.055 285.033" stroke="white" stroke-linecap="round" stroke-linejoin="round"/>
<path d="M353.193 226.203C355.667 230.463 357.984 236.593 357.611 241.504C357.412 242.396 357.099 243.258 356.681 244.071" stroke="white" stroke-linecap="round" stroke-linejoin="round"/>
<path d="M338.217 230.938C338.487 233.309 338.85 237.253 338.329 239.578C337.889 241.957 336.524 244.064 334.534 245.438" stroke="white" stroke-linecap="round" stroke-linejoin="round"/>
<path d="M359.314 221.963C359.855 222.636 360.293 223.385 360.617 224.186C361.246 225.336 362.112 226.34 363.158 227.132C364.203 227.924 365.403 228.486 366.681 228.781" stroke="white" stroke-linecap="round" stroke-linejoin="round"/>
<path d="M351.416 231.467C354.699 238.647 357.211 245.847 362.308 258.05" stroke="white" stroke-linecap="round" stroke-linejoin="round"/>
<path d="M349.667 227.794C349.946 228.352 350.216 228.91 350.486 229.468" stroke="white" stroke-linecap="round" stroke-linejoin="round"/>
<path d="M376.995 282.727C378.5 285.627 380.414 288.296 382.678 290.651" stroke="white" stroke-linecap="round" stroke-linejoin="round"/>
<path d="M378.549 285.406C379.534 289.957 381.333 294.293 383.86 298.205" stroke="white" stroke-linecap="round" stroke-linejoin="round"/>
<path d="M355.427 285.637C348.181 270.179 340.452 254.841 330.955 231.467" stroke="white" stroke-linecap="round" stroke-linejoin="round"/>
<path d="M357.063 290.131C356.886 289.591 356.7 289.052 356.505 288.503" stroke="white" stroke-linecap="round" stroke-linejoin="round"/>
<path d="M382.109 337.659C380.249 335.232 366.688 316.266 363.321 307.672C361.079 301.943 359.387 297.897 357.74 292.186" stroke="white" stroke-linecap="round" stroke-linejoin="round"/>
<path d="M376.995 301.161L383.441 320.108" stroke="white" stroke-linecap="round" stroke-linejoin="round"/>
<path d="M372.651 158.062L370.698 158.22C368.223 158.66 365.681 158.542 363.257 157.876C361.703 157.494 358.104 156.378 357.676 156.304C356.607 156.075 355.526 155.901 354.439 155.783C351.156 155.588 352.821 154.36 354.188 154.416C355.992 154.499 356.597 154.462 357.983 154.564C357.815 154.471 357.304 154.369 357.295 153.969C357.295 152.993 358.578 153.039 358.578 153.039C358.578 153.039 357.174 152.444 357.369 151.709C357.564 150.974 358.504 150.779 359.099 150.835C359.099 150.835 358.308 150.453 358.346 150.044C358.513 148.463 361.759 148.351 361.759 148.351C360.974 148 360.239 147.547 359.573 147.003C359.33 146.741 359.16 146.42 359.08 146.072C359.063 145.907 359.09 145.739 359.16 145.588C359.229 145.436 359.338 145.306 359.475 145.211C359.612 145.116 359.772 145.059 359.938 145.047C360.104 145.035 360.271 145.068 360.42 145.142C361.26 145.702 362.07 146.304 362.847 146.947C363.852 147.663 365.015 148.119 366.075 148.761C367.108 149.645 367.942 150.739 368.521 151.969C368.689 152.23 372.651 158.062 372.651 158.062Z" fill="white" stroke="#263238" stroke-linecap="round" stroke-linejoin="round"/>
<path d="M284.774 138.316V133.191C284.762 130.619 285.138 128.06 285.89 125.601C286.318 124.243 286.82 123.061 287.276 122.885C288.122 122.578 288.494 126.01 288.494 126.01C287.858 123.258 287.45 120.458 287.276 117.639C287.276 114.653 291.294 127.052 291.294 127.052L289.694 138.316H284.774Z" fill="white" stroke="#263238" stroke-linecap="round" stroke-linejoin="round"/>
<path d="M289.628 129.982C290.114 129.607 290.477 129.095 290.67 128.513L289.628 129.982Z" fill="white"/>
<path d="M289.628 129.982C290.114 129.607 290.477 129.095 290.67 128.513" stroke="#263238" stroke-linecap="round" stroke-linejoin="round"/>
<path d="M328.581 149.003C330.318 151.928 331.279 155.248 331.371 158.649C331.539 164.304 338.087 172.219 339.956 172.601C341.826 172.982 343.556 163.671 343.472 160.853C343.389 158.035 342.347 150.25 342.347 150.25C342.347 150.25 333.39 143.478 328.581 149.003Z" fill="white" stroke="#263238" stroke-linecap="round" stroke-linejoin="round"/>
<path d="M331.214 156.491C331.214 156.491 339.799 168.201 343.166 156.296C346.533 144.39 333.725 159.551 331.214 156.491Z" fill="#263238"/>
<path d="M345.706 148.073C345.25 155.021 342.078 158.927 338.423 159.616C335.084 160.23 330.2 156.825 327.763 151.775C327.577 151.654 324.61 149.598 323.903 149.096C323.534 148.838 323.233 148.494 323.026 148.094C322.818 147.694 322.711 147.249 322.713 146.799C322.737 146.366 322.889 145.951 323.151 145.606C323.413 145.261 323.772 145.003 324.182 144.864H324.266C324.685 144.773 325.121 144.805 325.522 144.957C324.908 142.585 324.406 140.176 324.024 137.748C324.201 132.168 326.052 127.61 332.005 127.164C337.958 126.717 342.934 130.047 343.166 132.447C343.334 134.307 343.938 139.227 344.478 144.315C344.627 145.636 345.808 146.51 345.706 148.073Z" fill="white" stroke="#263238" stroke-linecap="round" stroke-linejoin="round"/>
<path d="M343.167 140.036C343.167 140.036 339.335 138.279 339.986 143.99C340.116 145.115 342.209 146.78 342.209 146.78C342.209 146.78 341.669 148.463 340.674 148.463" fill="white"/>
<path d="M343.167 140.036C343.167 140.036 339.335 138.279 339.986 143.99C340.116 145.115 342.209 146.78 342.209 146.78C342.209 146.78 341.669 148.463 340.674 148.463" stroke="#263238" stroke-linecap="round" stroke-linejoin="round"/>
<path d="M335.762 141.989C335.762 141.989 333.809 140.799 332.469 141.533C331.771 141.837 331.176 142.338 330.758 142.975" fill="white"/>
<path d="M335.762 141.989C335.762 141.989 333.809 140.799 332.469 141.533C331.771 141.837 331.176 142.338 330.758 142.975" stroke="#263238" stroke-linecap="round" stroke-linejoin="round"/>
<path d="M334.646 145.282C334.795 145.97 334.646 146.584 334.246 146.668C333.846 146.752 333.456 146.249 333.316 145.561C333.177 144.873 333.316 144.259 333.725 144.175C334.135 144.092 334.507 144.585 334.646 145.282Z" fill="#263238"/>
<path d="M342.198 143.274C342.347 143.962 342.198 144.576 341.798 144.66C341.398 144.744 341.008 144.241 340.868 143.562C340.729 142.883 340.868 142.251 341.268 142.176C341.668 142.102 342.059 142.595 342.198 143.274Z" fill="#263238"/>
<path d="M323.578 130.539C322.898 131.206 322.426 132.056 322.22 132.986C321.663 134.952 321.502 137.01 321.746 139.039C321.991 141.069 322.636 143.029 323.643 144.808C324.263 144.731 324.892 144.757 325.504 144.882C326.155 145.049 326.992 146.166 327.299 146.742C327.568 147.357 327.722 148.016 327.755 148.686C327.606 146.919 327.466 145.161 327.317 143.394C327.218 142.687 327.249 141.968 327.41 141.273C327.866 139.822 327.364 136.399 327.494 133.339C331.354 138.055 336.963 137.218 338.823 137.06C341.613 136.827 343.995 133.972 343.846 131.935C343.697 129.898 343.148 124.652 333.949 124.112C331.923 123.897 329.879 124.323 328.108 125.331C327.546 125.701 327.07 126.185 326.709 126.753C326.348 127.32 326.112 127.958 326.015 128.623C325.885 129.479 326.211 129.553 325.559 129.972C324.908 130.391 324.22 129.991 323.578 130.539Z" fill="#263238" stroke="#263238" stroke-linecap="round" stroke-linejoin="round"/>
<path d="M335.763 151.737C335.763 151.737 337.13 153.244 339.985 152.249L335.763 151.737Z" fill="white"/>
<path d="M335.763 151.737C335.763 151.737 337.13 153.244 339.985 152.249" stroke="#263238" stroke-linecap="round" stroke-linejoin="round"/>
</svg>
