<svg width="26" height="32" viewBox="0 0 26 32" fill="none" xmlns="http://www.w3.org/2000/svg">
<path d="M13.0007 0.166992C8.6354 0.166992 5.08398 3.71841 5.08398 8.08366V12.8337H3.50065C2.6608 12.8337 1.85534 13.1673 1.26148 13.7612C0.667614 14.355 0.333984 15.1605 0.333984 16.0003V28.667C0.333984 29.5068 0.667614 30.3123 1.26148 30.9062C1.85534 31.5 2.6608 31.8337 3.50065 31.8337H22.5007C23.3405 31.8337 24.146 31.5 24.7398 30.9062C25.3337 30.3123 25.6673 29.5068 25.6673 28.667V16.0003C25.6673 15.1605 25.3337 14.355 24.7398 13.7612C24.146 13.1673 23.3405 12.8337 22.5007 12.8337H20.9173V8.08366C20.9173 3.71841 17.3659 0.166992 13.0007 0.166992ZM8.25065 8.08366C8.25065 5.46483 10.3818 3.33366 13.0007 3.33366C15.6195 3.33366 17.7507 5.46483 17.7507 8.08366V12.8337H8.25065V8.08366ZM14.584 25.0617V28.667H11.4173V25.0617C10.8638 24.7447 10.4193 24.2674 10.1425 23.6927C9.86565 23.118 9.76952 22.4729 9.86673 21.8425C9.96395 21.212 10.25 20.6258 10.687 20.1612C11.1241 19.6966 11.6917 19.3753 12.3151 19.2398C12.7781 19.1375 13.2581 19.1403 13.7199 19.2482C14.1816 19.3561 14.6133 19.5662 14.983 19.8631C15.3527 20.1601 15.651 20.5362 15.856 20.9638C16.061 21.3913 16.1674 21.8595 16.1673 22.3337C16.1664 22.8874 16.0196 23.4312 15.7416 23.9101C15.4636 24.389 15.0644 24.7863 14.584 25.0617Z" fill="#194A96"/>
</svg>
