<svg width="33" height="27" viewBox="0 0 33 27" fill="none" xmlns="http://www.w3.org/2000/svg">
<path d="M31.8711 23.278C31.2559 22.6724 23.802 19.7891 22.4494 19.2452C21.104 18.7109 20.5672 17.2301 20.5672 17.2301C20.5672 17.2301 19.9616 17.5649 19.9616 16.6244C19.9616 15.6827 20.5672 17.2301 21.1729 13.5987C21.1729 13.5987 22.8532 13.1272 22.5195 9.22868H22.1157C22.1157 9.22868 23.1251 5.06056 22.1157 3.64981C21.1028 2.23906 20.7062 1.29856 18.482 0.624056C16.2614 -0.0492562 17.0689 0.0849313 15.4562 0.153806C13.8412 0.221494 12.497 1.09549 12.497 1.56456C12.497 1.56456 11.4876 1.63224 11.0862 2.03599C10.6825 2.43974 10.0104 4.32074 10.0104 4.79099C10.0104 5.26124 10.3464 8.42474 10.6825 9.09449L10.2823 9.22512C9.94624 13.1249 11.6266 13.5975 11.6266 13.5975C12.2322 17.2289 12.8378 15.6816 12.8378 16.6232C12.8378 17.5637 12.2322 17.2289 12.2322 17.2289C12.2322 17.2289 11.6942 18.7085 10.35 19.2441C9.00574 19.782 1.54349 22.6724 0.936681 23.2768C0.331056 23.8943 0.398744 26.7158 0.398744 26.7158H14.6915L15.7341 22.6071L14.8079 21.6808L16.4027 20.0836L17.9975 21.6796L17.0712 22.6059L18.1139 26.7146H32.4066C32.4066 26.7146 32.4814 23.8907 31.8687 23.2744L31.8711 23.278Z" fill="#194A96"/>
</svg>
